<?xml version="1.0" encoding="UTF-8" standalone="no"?>
<!DOCTYPE svg PUBLIC "-//W3C//DTD SVG 1.1//EN"
 "http://www.w3.org/Graphics/SVG/1.1/DTD/svg11.dtd">
<!-- Generated by graphviz version 2.40.1 (20161225.0304)
 -->
<!-- Title: snakemake_dag Pages: 1 -->
<svg width="382pt" height="646pt"
 viewBox="0.00 0.00 382.00 646.00" xmlns="http://www.w3.org/2000/svg" xmlns:xlink="http://www.w3.org/1999/xlink">
<g id="graph0" class="graph" transform="scale(1 1) rotate(0) translate(4 642)">
<title>snakemake_dag</title>
<polygon fill="#ffffff" stroke="transparent" points="-4,4 -4,-642 378,-642 378,4 -4,4"/>
<!-- 0 -->
<g id="node1" class="node">
<title>0</title>
<path fill="none" stroke="#56c1d8" stroke-width="2" stroke-dasharray="5,2" d="M287,-36C287,-36 249,-36 249,-36 243,-36 237,-30 237,-24 237,-24 237,-12 237,-12 237,-6 243,0 249,0 249,0 287,0 287,0 293,0 299,-6 299,-12 299,-12 299,-24 299,-24 299,-30 293,-36 287,-36"/>
<text text-anchor="middle" x="268" y="-15.5" font-family="sans" font-size="10.00" fill="#000000">genotype</text>
</g>
<!-- 1 -->
<g id="node2" class="node">
<title>1</title>
<path fill="none" stroke="#566bd8" stroke-width="2" stroke-dasharray="5,2" d="M283,-108C283,-108 253,-108 253,-108 247,-108 241,-102 241,-96 241,-96 241,-84 241,-84 241,-78 247,-72 253,-72 253,-72 283,-72 283,-72 289,-72 295,-78 295,-84 295,-84 295,-96 295,-96 295,-102 289,-108 283,-108"/>
<text text-anchor="middle" x="268" y="-87.5" font-family="sans" font-size="10.00" fill="#000000">call_vcf</text>
</g>
<!-- 1&#45;&gt;0 -->
<g id="edge1" class="edge">
<title>1&#45;&gt;0</title>
<path fill="none" stroke="#c0c0c0" stroke-width="2" d="M268,-71.8314C268,-64.131 268,-54.9743 268,-46.4166"/>
<polygon fill="#c0c0c0" stroke="#c0c0c0" stroke-width="2" points="271.5001,-46.4132 268,-36.4133 264.5001,-46.4133 271.5001,-46.4132"/>
</g>
<!-- 2 -->
<g id="node3" class="node">
<title>2</title>
<path fill="none" stroke="#56d8b9" stroke-width="2" stroke-dasharray="5,2" d="M228,-180C228,-180 198,-180 198,-180 192,-180 186,-174 186,-168 186,-168 186,-156 186,-156 186,-150 192,-144 198,-144 198,-144 228,-144 228,-144 234,-144 240,-150 240,-156 240,-156 240,-168 240,-168 240,-174 234,-180 228,-180"/>
<text text-anchor="middle" x="213" y="-165" font-family="sans" font-size="10.00" fill="#000000">pack</text>
<text text-anchor="middle" x="213" y="-154" font-family="sans" font-size="10.00" fill="#000000">minq: 5</text>
</g>
<!-- 2&#45;&gt;1 -->
<g id="edge2" class="edge">
<title>2&#45;&gt;1</title>
<path fill="none" stroke="#c0c0c0" stroke-width="2" d="M226.8788,-143.8314C233.2136,-135.5386 240.8384,-125.557 247.7926,-116.4533"/>
<polygon fill="#c0c0c0" stroke="#c0c0c0" stroke-width="2" points="250.6452,-118.4847 253.9343,-108.4133 245.0825,-114.2353 250.6452,-118.4847"/>
</g>
<!-- 3 -->
<g id="node4" class="node">
<title>3</title>
<path fill="none" stroke="#61d856" stroke-width="2" stroke-dasharray="5,2" d="M248.5,-406C248.5,-406 211.5,-406 211.5,-406 205.5,-406 199.5,-400 199.5,-394 199.5,-394 199.5,-382 199.5,-382 199.5,-376 205.5,-370 211.5,-370 211.5,-370 248.5,-370 248.5,-370 254.5,-370 260.5,-376 260.5,-382 260.5,-382 260.5,-394 260.5,-394 260.5,-400 254.5,-406 248.5,-406"/>
<text text-anchor="middle" x="230" y="-385.5" font-family="sans" font-size="10.00" fill="#000000">index_xg</text>
</g>
<!-- 3&#45;&gt;1 -->
<g id="edge3" class="edge">
<title>3&#45;&gt;1</title>
<path fill="none" stroke="#c0c0c0" stroke-width="2" d="M233.2969,-369.5388C235.1018,-359.122 237.3085,-345.8554 239,-334 250.1289,-256.0011 260.2943,-163.5456 265.0938,-118.0917"/>
<polygon fill="#c0c0c0" stroke="#c0c0c0" stroke-width="2" points="268.5797,-118.4084 266.1424,-108.0977 261.6179,-117.6779 268.5797,-118.4084"/>
</g>
<!-- 3&#45;&gt;2 -->
<g id="edge5" class="edge">
<title>3&#45;&gt;2</title>
<path fill="none" stroke="#c0c0c0" stroke-width="2" d="M228.6376,-369.8875C225.6845,-330.6289 218.675,-237.4447 215.1306,-190.3243"/>
<polygon fill="#c0c0c0" stroke="#c0c0c0" stroke-width="2" points="218.6093,-189.908 214.3689,-180.1988 211.629,-190.4331 218.6093,-189.908"/>
</g>
<!-- 4 -->
<g id="node5" class="node">
<title>4</title>
<path fill="none" stroke="#56d85b" stroke-width="2" stroke-dasharray="5,2" d="M362,-254.5C362,-254.5 308,-254.5 308,-254.5 302,-254.5 296,-248.5 296,-242.5 296,-242.5 296,-230.5 296,-230.5 296,-224.5 302,-218.5 308,-218.5 308,-218.5 362,-218.5 362,-218.5 368,-218.5 374,-224.5 374,-230.5 374,-230.5 374,-242.5 374,-242.5 374,-248.5 368,-254.5 362,-254.5"/>
<text text-anchor="middle" x="335" y="-234" font-family="sans" font-size="10.00" fill="#000000">index_snarls</text>
</g>
<!-- 3&#45;&gt;4 -->
<g id="edge10" class="edge">
<title>3&#45;&gt;4</title>
<path fill="none" stroke="#c0c0c0" stroke-width="2" d="M249.8625,-369.876C260.1662,-359.8847 272.54,-346.9143 282,-334 298.2417,-311.8277 312.84,-284.0899 322.583,-263.8745"/>
<polygon fill="#c0c0c0" stroke="#c0c0c0" stroke-width="2" points="325.8519,-265.1488 326.9618,-254.6122 319.5235,-262.157 325.8519,-265.1488"/>
</g>
<!-- 9 -->
<g id="node10" class="node">
<title>9</title>
<path fill="none" stroke="#b6d856" stroke-width="2" stroke-dasharray="5,2" d="M190,-334C190,-334 122,-334 122,-334 116,-334 110,-328 110,-322 110,-322 110,-305 110,-305 110,-299 116,-293 122,-293 122,-293 190,-293 190,-293 196,-293 202,-299 202,-305 202,-305 202,-322 202,-322 202,-328 196,-334 190,-334"/>
<text text-anchor="middle" x="156" y="-322" font-family="sans" font-size="10.00" fill="#000000">map</text>
<text text-anchor="middle" x="156" y="-311" font-family="sans" font-size="10.00" fill="#000000">part: 01</text>
<text text-anchor="middle" x="156" y="-300" font-family="sans" font-size="10.00" fill="#000000">sample: samp1</text>
</g>
<!-- 3&#45;&gt;9 -->
<g id="edge15" class="edge">
<title>3&#45;&gt;9</title>
<path fill="none" stroke="#c0c0c0" stroke-width="2" d="M212.0867,-369.9656C203.5652,-361.3866 193.1837,-350.9349 183.6798,-341.3668"/>
<polygon fill="#c0c0c0" stroke="#c0c0c0" stroke-width="2" points="186.1589,-338.8962 176.6285,-334.2679 181.1925,-343.8293 186.1589,-338.8962"/>
</g>
<!-- 10 -->
<g id="node11" class="node">
<title>10</title>
<path fill="none" stroke="#b6d856" stroke-width="2" stroke-dasharray="5,2" d="M80,-334C80,-334 12,-334 12,-334 6,-334 0,-328 0,-322 0,-322 0,-305 0,-305 0,-299 6,-293 12,-293 12,-293 80,-293 80,-293 86,-293 92,-299 92,-305 92,-305 92,-322 92,-322 92,-328 86,-334 80,-334"/>
<text text-anchor="middle" x="46" y="-322" font-family="sans" font-size="10.00" fill="#000000">map</text>
<text text-anchor="middle" x="46" y="-311" font-family="sans" font-size="10.00" fill="#000000">part: 00</text>
<text text-anchor="middle" x="46" y="-300" font-family="sans" font-size="10.00" fill="#000000">sample: samp1</text>
</g>
<!-- 3&#45;&gt;10 -->
<g id="edge17" class="edge">
<title>3&#45;&gt;10</title>
<path fill="none" stroke="#c0c0c0" stroke-width="2" d="M199.2025,-375.5304C172.6863,-364.7942 133.7561,-349.0317 101.7756,-336.0831"/>
<polygon fill="#c0c0c0" stroke="#c0c0c0" stroke-width="2" points="102.6778,-332.6724 92.0952,-332.1636 100.0507,-339.1607 102.6778,-332.6724"/>
</g>
<!-- 4&#45;&gt;1 -->
<g id="edge4" class="edge">
<title>4&#45;&gt;1</title>
<path fill="none" stroke="#c0c0c0" stroke-width="2" d="M326.6499,-218.2419C315.0518,-192.882 293.976,-146.7982 280.4993,-117.3305"/>
<polygon fill="#c0c0c0" stroke="#c0c0c0" stroke-width="2" points="283.5869,-115.6664 276.2449,-108.028 277.2211,-118.5778 283.5869,-115.6664"/>
</g>
<!-- 5 -->
<g id="node6" class="node">
<title>5</title>
<path fill="none" stroke="#568ad8" stroke-width="2" stroke-dasharray="5,2" d="M185.5,-257C185.5,-257 126.5,-257 126.5,-257 120.5,-257 114.5,-251 114.5,-245 114.5,-245 114.5,-228 114.5,-228 114.5,-222 120.5,-216 126.5,-216 126.5,-216 185.5,-216 185.5,-216 191.5,-216 197.5,-222 197.5,-228 197.5,-228 197.5,-245 197.5,-245 197.5,-251 191.5,-257 185.5,-257"/>
<text text-anchor="middle" x="156" y="-245" font-family="sans" font-size="10.00" fill="#000000">merge_gam</text>
<text text-anchor="middle" x="156" y="-234" font-family="sans" font-size="10.00" fill="#000000">graph: ref&#45;svs</text>
<text text-anchor="middle" x="156" y="-223" font-family="sans" font-size="10.00" fill="#000000">map: map</text>
</g>
<!-- 5&#45;&gt;2 -->
<g id="edge6" class="edge">
<title>5&#45;&gt;2</title>
<path fill="none" stroke="#c0c0c0" stroke-width="2" d="M171.8777,-215.7476C178.435,-207.177 186.1095,-197.1463 193.0413,-188.0864"/>
<polygon fill="#c0c0c0" stroke="#c0c0c0" stroke-width="2" points="195.8483,-190.1775 199.145,-180.1087 190.2888,-185.924 195.8483,-190.1775"/>
</g>
<!-- 6 -->
<g id="node7" class="node">
<title>6</title>
<path fill="none" stroke="#d87d56" stroke-width="2" stroke-dasharray="5,2" d="M225,-638C225,-638 167,-638 167,-638 161,-638 155,-632 155,-626 155,-626 155,-598 155,-598 155,-592 161,-586 167,-586 167,-586 225,-586 225,-586 231,-586 237,-592 237,-598 237,-598 237,-626 237,-626 237,-632 231,-638 225,-638"/>
<text text-anchor="middle" x="196" y="-626" font-family="sans" font-size="10.00" fill="#000000">construct_chr</text>
<text text-anchor="middle" x="196" y="-615" font-family="sans" font-size="10.00" fill="#000000">chr: 1</text>
<text text-anchor="middle" x="196" y="-604" font-family="sans" font-size="10.00" fill="#000000">genome: ref</text>
<text text-anchor="middle" x="196" y="-593" font-family="sans" font-size="10.00" fill="#000000">svs: svs</text>
</g>
<!-- 6&#45;&gt;3 -->
<g id="edge7" class="edge">
<title>6&#45;&gt;3</title>
<path fill="none" stroke="#c0c0c0" stroke-width="2" d="M222.3358,-585.9481C230.9761,-575.6498 239.5085,-563.1384 244,-550 259.4087,-504.9265 248.4222,-448.8898 239.142,-415.9249"/>
<polygon fill="#c0c0c0" stroke="#c0c0c0" stroke-width="2" points="242.4207,-414.6699 236.2246,-406.0758 235.709,-416.6581 242.4207,-414.6699"/>
</g>
<!-- 8 -->
<g id="node9" class="node">
<title>8</title>
<path fill="none" stroke="#d8d356" stroke-width="2" stroke-dasharray="5,2" d="M127,-550C127,-550 97,-550 97,-550 91,-550 85,-544 85,-538 85,-538 85,-526 85,-526 85,-520 91,-514 97,-514 97,-514 127,-514 127,-514 133,-514 139,-520 139,-526 139,-526 139,-538 139,-538 139,-544 133,-550 127,-550"/>
<text text-anchor="middle" x="112" y="-529.5" font-family="sans" font-size="10.00" fill="#000000">join_ids</text>
</g>
<!-- 6&#45;&gt;8 -->
<g id="edge13" class="edge">
<title>6&#45;&gt;8</title>
<path fill="none" stroke="#c0c0c0" stroke-width="2" d="M168.4953,-585.805C158.8301,-576.6001 147.9975,-566.2834 138.4232,-557.165"/>
<polygon fill="#c0c0c0" stroke="#c0c0c0" stroke-width="2" points="140.7161,-554.5153 131.0609,-550.1532 135.8885,-559.5843 140.7161,-554.5153"/>
</g>
<!-- 12 -->
<g id="node13" class="node">
<title>12</title>
<path fill="none" stroke="#56d0d8" stroke-width="2" stroke-dasharray="5,2" d="M190,-478C190,-478 152,-478 152,-478 146,-478 140,-472 140,-466 140,-466 140,-454 140,-454 140,-448 146,-442 152,-442 152,-442 190,-442 190,-442 196,-442 202,-448 202,-454 202,-454 202,-466 202,-466 202,-472 196,-478 190,-478"/>
<text text-anchor="middle" x="171" y="-457.5" font-family="sans" font-size="10.00" fill="#000000">prune_vg</text>
</g>
<!-- 6&#45;&gt;12 -->
<g id="edge21" class="edge">
<title>6&#45;&gt;12</title>
<path fill="none" stroke="#c0c0c0" stroke-width="2" d="M191.7023,-585.8703C187.2211,-558.6241 180.2217,-516.0678 175.6229,-488.1075"/>
<polygon fill="#c0c0c0" stroke="#c0c0c0" stroke-width="2" points="179.0648,-487.4678 173.9882,-478.1685 172.1577,-488.6039 179.0648,-487.4678"/>
</g>
<!-- 7 -->
<g id="node8" class="node">
<title>7</title>
<path fill="none" stroke="#d87d56" stroke-width="2" stroke-dasharray="5,2" d="M125,-638C125,-638 67,-638 67,-638 61,-638 55,-632 55,-626 55,-626 55,-598 55,-598 55,-592 61,-586 67,-586 67,-586 125,-586 125,-586 131,-586 137,-592 137,-598 137,-598 137,-626 137,-626 137,-632 131,-638 125,-638"/>
<text text-anchor="middle" x="96" y="-626" font-family="sans" font-size="10.00" fill="#000000">construct_chr</text>
<text text-anchor="middle" x="96" y="-615" font-family="sans" font-size="10.00" fill="#000000">chr: 2</text>
<text text-anchor="middle" x="96" y="-604" font-family="sans" font-size="10.00" fill="#000000">genome: ref</text>
<text text-anchor="middle" x="96" y="-593" font-family="sans" font-size="10.00" fill="#000000">svs: svs</text>
</g>
<!-- 7&#45;&gt;3 -->
<g id="edge8" class="edge">
<title>7&#45;&gt;3</title>
<path fill="none" stroke="#c0c0c0" stroke-width="2" d="M125.7526,-585.7806C152.2418,-560.7427 189.9622,-520.6067 211,-478 220.5746,-458.609 225.3363,-434.5484 227.6977,-416.1849"/>
<polygon fill="#c0c0c0" stroke="#c0c0c0" stroke-width="2" points="231.1913,-416.4375 228.829,-406.1094 224.235,-415.6564 231.1913,-416.4375"/>
</g>
<!-- 7&#45;&gt;8 -->
<g id="edge14" class="edge">
<title>7&#45;&gt;8</title>
<path fill="none" stroke="#c0c0c0" stroke-width="2" d="M101.239,-585.805C102.8795,-577.6026 104.6965,-568.5174 106.3632,-560.1839"/>
<polygon fill="#c0c0c0" stroke="#c0c0c0" stroke-width="2" points="109.8401,-560.6455 108.3694,-550.1532 102.9761,-559.2726 109.8401,-560.6455"/>
</g>
<!-- 13 -->
<g id="node14" class="node">
<title>13</title>
<path fill="none" stroke="#56d0d8" stroke-width="2" stroke-dasharray="5,2" d="M72,-478C72,-478 34,-478 34,-478 28,-478 22,-472 22,-466 22,-466 22,-454 22,-454 22,-448 28,-442 34,-442 34,-442 72,-442 72,-442 78,-442 84,-448 84,-454 84,-454 84,-466 84,-466 84,-472 78,-478 72,-478"/>
<text text-anchor="middle" x="53" y="-457.5" font-family="sans" font-size="10.00" fill="#000000">prune_vg</text>
</g>
<!-- 7&#45;&gt;13 -->
<g id="edge23" class="edge">
<title>7&#45;&gt;13</title>
<path fill="none" stroke="#c0c0c0" stroke-width="2" d="M87.173,-585.8643C83.5537,-574.8421 79.4202,-561.844 76,-550 70.0157,-529.2767 64.0064,-505.6407 59.6316,-487.7923"/>
<polygon fill="#c0c0c0" stroke="#c0c0c0" stroke-width="2" points="63.019,-486.9092 57.2573,-478.0181 56.2168,-488.5617 63.019,-486.9092"/>
</g>
<!-- 8&#45;&gt;3 -->
<g id="edge9" class="edge">
<title>8&#45;&gt;3</title>
<path fill="none" stroke="#c0c0c0" stroke-width="2" d="M111.5325,-513.9814C111.9236,-494.4161 115.2694,-463.1387 131,-442 145.5297,-422.475 169.2928,-409.1792 189.8958,-400.6668"/>
<polygon fill="#c0c0c0" stroke="#c0c0c0" stroke-width="2" points="191.3429,-403.8595 199.3975,-396.9767 188.8087,-397.3344 191.3429,-403.8595"/>
</g>
<!-- 8&#45;&gt;12 -->
<g id="edge22" class="edge">
<title>8&#45;&gt;12</title>
<path fill="none" stroke="#c0c0c0" stroke-width="2" d="M126.8882,-513.8314C133.753,-505.454 142.0301,-495.3531 149.5511,-486.1749"/>
<polygon fill="#c0c0c0" stroke="#c0c0c0" stroke-width="2" points="152.2803,-488.3665 155.9114,-478.4133 146.8659,-483.9297 152.2803,-488.3665"/>
</g>
<!-- 8&#45;&gt;13 -->
<g id="edge24" class="edge">
<title>8&#45;&gt;13</title>
<path fill="none" stroke="#c0c0c0" stroke-width="2" d="M97.1118,-513.8314C90.247,-505.454 81.9699,-495.3531 74.4489,-486.1749"/>
<polygon fill="#c0c0c0" stroke="#c0c0c0" stroke-width="2" points="77.1341,-483.9297 68.0886,-478.4133 71.7197,-488.3665 77.1341,-483.9297"/>
</g>
<!-- 9&#45;&gt;5 -->
<g id="edge11" class="edge">
<title>9&#45;&gt;5</title>
<path fill="none" stroke="#c0c0c0" stroke-width="2" d="M156,-292.8654C156,-285.0111 156,-275.8822 156,-267.2879"/>
<polygon fill="#c0c0c0" stroke="#c0c0c0" stroke-width="2" points="159.5001,-267.1915 156,-257.1915 152.5001,-267.1916 159.5001,-267.1915"/>
</g>
<!-- 10&#45;&gt;5 -->
<g id="edge12" class="edge">
<title>10&#45;&gt;5</title>
<path fill="none" stroke="#c0c0c0" stroke-width="2" d="M75.478,-292.8654C88.5479,-283.7165 104.0885,-272.838 118.0147,-263.0897"/>
<polygon fill="#c0c0c0" stroke="#c0c0c0" stroke-width="2" points="120.2554,-265.7935 126.4406,-257.1915 116.2412,-260.0589 120.2554,-265.7935"/>
</g>
<!-- 11 -->
<g id="node12" class="node">
<title>11</title>
<path fill="none" stroke="#56a2d8" stroke-width="2" stroke-dasharray="5,2" d="M122.5,-406C122.5,-406 75.5,-406 75.5,-406 69.5,-406 63.5,-400 63.5,-394 63.5,-394 63.5,-382 63.5,-382 63.5,-376 69.5,-370 75.5,-370 75.5,-370 122.5,-370 122.5,-370 128.5,-370 134.5,-376 134.5,-382 134.5,-382 134.5,-394 134.5,-394 134.5,-400 128.5,-406 122.5,-406"/>
<text text-anchor="middle" x="99" y="-385.5" font-family="sans" font-size="10.00" fill="#000000">index_gcsa</text>
</g>
<!-- 11&#45;&gt;9 -->
<g id="edge16" class="edge">
<title>11&#45;&gt;9</title>
<path fill="none" stroke="#c0c0c0" stroke-width="2" d="M112.7981,-369.9656C119.1689,-361.6389 126.8894,-351.5481 134.0314,-342.2133"/>
<polygon fill="#c0c0c0" stroke="#c0c0c0" stroke-width="2" points="136.8137,-344.3367 140.1105,-334.2679 131.2542,-340.0832 136.8137,-344.3367"/>
</g>
<!-- 11&#45;&gt;10 -->
<g id="edge18" class="edge">
<title>11&#45;&gt;10</title>
<path fill="none" stroke="#c0c0c0" stroke-width="2" d="M86.1702,-369.9656C80.3063,-361.723 73.2127,-351.7518 66.6283,-342.4964"/>
<polygon fill="#c0c0c0" stroke="#c0c0c0" stroke-width="2" points="69.4233,-340.3874 60.7745,-334.2679 63.7194,-344.4452 69.4233,-340.3874"/>
</g>
<!-- 12&#45;&gt;11 -->
<g id="edge19" class="edge">
<title>12&#45;&gt;11</title>
<path fill="none" stroke="#c0c0c0" stroke-width="2" d="M152.8314,-441.8314C144.2848,-433.2848 133.9443,-422.9443 124.6198,-413.6198"/>
<polygon fill="#c0c0c0" stroke="#c0c0c0" stroke-width="2" points="126.9592,-411.0095 117.4133,-406.4133 122.0095,-415.9592 126.9592,-411.0095"/>
</g>
<!-- 13&#45;&gt;11 -->
<g id="edge20" class="edge">
<title>13&#45;&gt;11</title>
<path fill="none" stroke="#c0c0c0" stroke-width="2" d="M64.6077,-441.8314C69.7978,-433.7079 76.0232,-423.9637 81.7425,-415.0118"/>
<polygon fill="#c0c0c0" stroke="#c0c0c0" stroke-width="2" points="84.8015,-416.7246 87.236,-406.4133 78.9026,-412.9559 84.8015,-416.7246"/>
</g>
</g>
</svg>
