<?xml version="1.0" encoding="UTF-8" standalone="no"?>
<!DOCTYPE svg PUBLIC "-//W3C//DTD SVG 1.1//EN"
 "http://www.w3.org/Graphics/SVG/1.1/DTD/svg11.dtd">
<!-- Generated by graphviz version 2.40.1 (20161225.0304)
 -->
<!-- Title: snakemake_dag Pages: 1 -->
<svg width="526pt" height="692pt"
 viewBox="0.00 0.00 526.00 692.00" xmlns="http://www.w3.org/2000/svg" xmlns:xlink="http://www.w3.org/1999/xlink">
<g id="graph0" class="graph" transform="scale(1 1) rotate(0) translate(4 688)">
<title>snakemake_dag</title>
<polygon fill="#ffffff" stroke="transparent" points="-4,4 -4,-688 522,-688 522,4 -4,4"/>
<!-- 0 -->
<g id="node1" class="node">
<title>0</title>
<path fill="none" stroke="#56d0d8" stroke-width="2" d="M86,-36C86,-36 48,-36 48,-36 42,-36 36,-30 36,-24 36,-24 36,-12 36,-12 36,-6 42,0 48,0 48,0 86,0 86,0 92,0 98,-6 98,-12 98,-12 98,-24 98,-24 98,-30 92,-36 86,-36"/>
<text text-anchor="middle" x="67" y="-15.5" font-family="sans" font-size="10.00" fill="#000000">genotype</text>
</g>
<!-- 1 -->
<g id="node2" class="node">
<title>1</title>
<path fill="none" stroke="#d86656" stroke-width="2" d="M82,-108C82,-108 52,-108 52,-108 46,-108 40,-102 40,-96 40,-96 40,-84 40,-84 40,-78 46,-72 52,-72 52,-72 82,-72 82,-72 88,-72 94,-78 94,-84 94,-84 94,-96 94,-96 94,-102 88,-108 82,-108"/>
<text text-anchor="middle" x="67" y="-87.5" font-family="sans" font-size="10.00" fill="#000000">call_vcf</text>
</g>
<!-- 1&#45;&gt;0 -->
<g id="edge1" class="edge">
<title>1&#45;&gt;0</title>
<path fill="none" stroke="#c0c0c0" stroke-width="2" d="M67,-71.8314C67,-64.131 67,-54.9743 67,-46.4166"/>
<polygon fill="#c0c0c0" stroke="#c0c0c0" stroke-width="2" points="70.5001,-46.4132 67,-36.4133 63.5001,-46.4133 70.5001,-46.4132"/>
</g>
<!-- 2 -->
<g id="node3" class="node">
<title>2</title>
<path fill="none" stroke="#d8ac56" stroke-width="2" d="M149,-180C149,-180 119,-180 119,-180 113,-180 107,-174 107,-168 107,-168 107,-156 107,-156 107,-150 113,-144 119,-144 119,-144 149,-144 149,-144 155,-144 161,-150 161,-156 161,-156 161,-168 161,-168 161,-174 155,-180 149,-180"/>
<text text-anchor="middle" x="134" y="-159.5" font-family="sans" font-size="10.00" fill="#000000">pack</text>
</g>
<!-- 2&#45;&gt;1 -->
<g id="edge3" class="edge">
<title>2&#45;&gt;1</title>
<path fill="none" stroke="#c0c0c0" stroke-width="2" d="M117.0931,-143.8314C109.2187,-135.3694 99.708,-125.1489 91.0987,-115.8971"/>
<polygon fill="#c0c0c0" stroke="#c0c0c0" stroke-width="2" points="93.5092,-113.3497 84.1346,-108.4133 88.3847,-118.1183 93.5092,-113.3497"/>
</g>
<!-- 3 -->
<g id="node4" class="node">
<title>3</title>
<path fill="none" stroke="#56d873" stroke-width="2" d="M278.5,-540C278.5,-540 241.5,-540 241.5,-540 235.5,-540 229.5,-534 229.5,-528 229.5,-528 229.5,-516 229.5,-516 229.5,-510 235.5,-504 241.5,-504 241.5,-504 278.5,-504 278.5,-504 284.5,-504 290.5,-510 290.5,-516 290.5,-516 290.5,-528 290.5,-528 290.5,-534 284.5,-540 278.5,-540"/>
<text text-anchor="middle" x="260" y="-519.5" font-family="sans" font-size="10.00" fill="#000000">index_xg</text>
</g>
<!-- 3&#45;&gt;1 -->
<g id="edge4" class="edge">
<title>3&#45;&gt;1</title>
<path fill="none" stroke="#c0c0c0" stroke-width="2" d="M229.4101,-519.3072C160.6812,-511.4104 0,-481.8442 0,-378 0,-378 0,-378 0,-234 0,-189.7121 26.3742,-144.3128 46.0276,-116.6304"/>
<polygon fill="#c0c0c0" stroke="#c0c0c0" stroke-width="2" points="49.0504,-118.4263 52.1305,-108.2891 43.401,-114.293 49.0504,-118.4263"/>
</g>
<!-- 3&#45;&gt;2 -->
<g id="edge5" class="edge">
<title>3&#45;&gt;2</title>
<path fill="none" stroke="#c0c0c0" stroke-width="2" d="M229.4556,-514.4638C205.0503,-506.8351 171.9044,-492.5737 153,-468 128.0727,-435.5973 134,-418.8816 134,-378 134,-378 134,-378 134,-306 134,-265.876 134,-219.4631 134,-190.4177"/>
<polygon fill="#c0c0c0" stroke="#c0c0c0" stroke-width="2" points="137.5001,-190.1853 134,-180.1854 130.5001,-190.1854 137.5001,-190.1853"/>
</g>
<!-- 4 -->
<g id="node5" class="node">
<title>4</title>
<path fill="none" stroke="#56d892" stroke-width="2" d="M94,-324C94,-324 40,-324 40,-324 34,-324 28,-318 28,-312 28,-312 28,-300 28,-300 28,-294 34,-288 40,-288 40,-288 94,-288 94,-288 100,-288 106,-294 106,-300 106,-300 106,-312 106,-312 106,-318 100,-324 94,-324"/>
<text text-anchor="middle" x="67" y="-303.5" font-family="sans" font-size="10.00" fill="#000000">index_snarls</text>
</g>
<!-- 3&#45;&gt;4 -->
<g id="edge9" class="edge">
<title>3&#45;&gt;4</title>
<path fill="none" stroke="#c0c0c0" stroke-width="2" d="M229.2795,-517.9379C197.7003,-512.1842 149.1463,-498.7011 120,-468 84.7336,-430.8524 72.9275,-369.8769 68.9793,-334.2788"/>
<polygon fill="#c0c0c0" stroke="#c0c0c0" stroke-width="2" points="72.4411,-333.7144 67.9891,-324.1003 65.4739,-334.3923 72.4411,-333.7144"/>
</g>
<!-- 8 -->
<g id="node9" class="node">
<title>8</title>
<path fill="none" stroke="#56c1d8" stroke-width="2" d="M362,-324C362,-324 318,-324 318,-324 312,-324 306,-318 306,-312 306,-312 306,-300 306,-300 306,-294 312,-288 318,-288 318,-288 362,-288 362,-288 368,-288 374,-294 374,-300 374,-300 374,-312 374,-312 374,-318 368,-324 362,-324"/>
<text text-anchor="middle" x="340" y="-303.5" font-family="sans" font-size="10.00" fill="#000000">map_gaffe</text>
</g>
<!-- 3&#45;&gt;8 -->
<g id="edge15" class="edge">
<title>3&#45;&gt;8</title>
<path fill="none" stroke="#c0c0c0" stroke-width="2" d="M274.8447,-503.8881C282.5608,-493.7969 291.674,-480.7297 298,-468 319.8181,-424.0958 331.1213,-367.687 336.2921,-334.3325"/>
<polygon fill="#c0c0c0" stroke="#c0c0c0" stroke-width="2" points="339.7665,-334.7615 337.7609,-324.3583 332.8412,-333.7416 339.7665,-334.7615"/>
</g>
<!-- 9 -->
<g id="node10" class="node">
<title>9</title>
<path fill="none" stroke="#567bd8" stroke-width="2" d="M454,-396C454,-396 380,-396 380,-396 374,-396 368,-390 368,-384 368,-384 368,-372 368,-372 368,-366 374,-360 380,-360 380,-360 454,-360 454,-360 460,-360 466,-366 466,-372 466,-372 466,-384 466,-384 466,-390 460,-396 454,-396"/>
<text text-anchor="middle" x="417" y="-375.5" font-family="sans" font-size="10.00" fill="#000000">index_minimizer</text>
</g>
<!-- 3&#45;&gt;9 -->
<g id="edge17" class="edge">
<title>3&#45;&gt;9</title>
<path fill="none" stroke="#c0c0c0" stroke-width="2" d="M290.5819,-508.7043C310.1348,-499.2255 335.25,-485.1463 354,-468 373.8369,-449.8598 390.9266,-424.4151 402.2816,-405.2068"/>
<polygon fill="#c0c0c0" stroke="#c0c0c0" stroke-width="2" points="405.4309,-406.7512 407.3822,-396.3376 399.3628,-403.2615 405.4309,-406.7512"/>
</g>
<!-- 10 -->
<g id="node11" class="node">
<title>10</title>
<path fill="none" stroke="#56d8c9" stroke-width="2" d="M300,-396C300,-396 234,-396 234,-396 228,-396 222,-390 222,-384 222,-384 222,-372 222,-372 222,-366 228,-360 234,-360 234,-360 300,-360 300,-360 306,-360 312,-366 312,-372 312,-372 312,-384 312,-384 312,-390 306,-396 300,-396"/>
<text text-anchor="middle" x="267" y="-375.5" font-family="sans" font-size="10.00" fill="#000000">index_distance</text>
</g>
<!-- 3&#45;&gt;10 -->
<g id="edge19" class="edge">
<title>3&#45;&gt;10</title>
<path fill="none" stroke="#c0c0c0" stroke-width="2" d="M270.0235,-503.6094C274.9981,-493.4366 280.4733,-480.3803 283,-468 287.2181,-447.3326 282.7431,-423.8653 277.4648,-406.0766"/>
<polygon fill="#c0c0c0" stroke="#c0c0c0" stroke-width="2" points="280.7208,-404.769 274.3239,-396.3233 274.0578,-406.9148 280.7208,-404.769"/>
</g>
<!-- 11 -->
<g id="node12" class="node">
<title>11</title>
<path fill="none" stroke="#56d85b" stroke-width="2" d="M506,-468C506,-468 418,-468 418,-468 412,-468 406,-462 406,-456 406,-456 406,-444 406,-444 406,-438 412,-432 418,-432 418,-432 506,-432 506,-432 512,-432 518,-438 518,-444 518,-444 518,-456 518,-456 518,-462 512,-468 506,-468"/>
<text text-anchor="middle" x="462" y="-447.5" font-family="sans" font-size="10.00" fill="#000000">index_gbwt_greedy</text>
</g>
<!-- 3&#45;&gt;11 -->
<g id="edge20" class="edge">
<title>3&#45;&gt;11</title>
<path fill="none" stroke="#c0c0c0" stroke-width="2" d="M290.6795,-511.0647C320.0609,-500.5922 365.2039,-484.5016 401.7753,-471.4662"/>
<polygon fill="#c0c0c0" stroke="#c0c0c0" stroke-width="2" points="403.1124,-474.7054 411.3568,-468.051 400.7621,-468.1117 403.1124,-474.7054"/>
</g>
<!-- 12 -->
<g id="node13" class="node">
<title>12</title>
<path fill="none" stroke="#56d8b9" stroke-width="2" d="M262,-468C262,-468 174,-468 174,-468 168,-468 162,-462 162,-456 162,-456 162,-444 162,-444 162,-438 168,-432 174,-432 174,-432 262,-432 262,-432 268,-432 274,-438 274,-444 274,-444 274,-456 274,-456 274,-462 268,-468 262,-468"/>
<text text-anchor="middle" x="218" y="-447.5" font-family="sans" font-size="10.00" fill="#000000">index_trivial_snarls</text>
</g>
<!-- 3&#45;&gt;12 -->
<g id="edge21" class="edge">
<title>3&#45;&gt;12</title>
<path fill="none" stroke="#c0c0c0" stroke-width="2" d="M249.4016,-503.8314C244.7123,-495.7925 239.0972,-486.1666 233.9202,-477.2918"/>
<polygon fill="#c0c0c0" stroke="#c0c0c0" stroke-width="2" points="236.8031,-475.2875 228.7411,-468.4133 230.7566,-478.8146 236.8031,-475.2875"/>
</g>
<!-- 4&#45;&gt;1 -->
<g id="edge2" class="edge">
<title>4&#45;&gt;1</title>
<path fill="none" stroke="#c0c0c0" stroke-width="2" d="M67,-287.9555C67,-250.3938 67,-163.5541 67,-118.4103"/>
<polygon fill="#c0c0c0" stroke="#c0c0c0" stroke-width="2" points="70.5001,-118.145 67,-108.1451 63.5001,-118.1451 70.5001,-118.145"/>
</g>
<!-- 5 -->
<g id="node6" class="node">
<title>5</title>
<path fill="none" stroke="#568ad8" stroke-width="2" d="M295.5,-252C295.5,-252 244.5,-252 244.5,-252 238.5,-252 232.5,-246 232.5,-240 232.5,-240 232.5,-228 232.5,-228 232.5,-222 238.5,-216 244.5,-216 244.5,-216 295.5,-216 295.5,-216 301.5,-216 307.5,-222 307.5,-228 307.5,-228 307.5,-240 307.5,-240 307.5,-246 301.5,-252 295.5,-252"/>
<text text-anchor="middle" x="270" y="-231.5" font-family="sans" font-size="10.00" fill="#000000">merge_gam</text>
</g>
<!-- 5&#45;&gt;2 -->
<g id="edge6" class="edge">
<title>5&#45;&gt;2</title>
<path fill="none" stroke="#c0c0c0" stroke-width="2" d="M235.6815,-215.8314C215.6194,-205.2103 190.3245,-191.8188 169.9827,-181.0497"/>
<polygon fill="#c0c0c0" stroke="#c0c0c0" stroke-width="2" points="171.4972,-177.8912 161.0217,-176.3056 168.2219,-184.0778 171.4972,-177.8912"/>
</g>
<!-- 6 -->
<g id="node7" class="node">
<title>6</title>
<path fill="none" stroke="#ced856" stroke-width="2" d="M289,-684C289,-684 231,-684 231,-684 225,-684 219,-678 219,-672 219,-672 219,-660 219,-660 219,-654 225,-648 231,-648 231,-648 289,-648 289,-648 295,-648 301,-654 301,-660 301,-660 301,-672 301,-672 301,-678 295,-684 289,-684"/>
<text text-anchor="middle" x="260" y="-663.5" font-family="sans" font-size="10.00" fill="#000000">construct_chr</text>
</g>
<!-- 6&#45;&gt;3 -->
<g id="edge7" class="edge">
<title>6&#45;&gt;3</title>
<path fill="none" stroke="#c0c0c0" stroke-width="2" d="M256.585,-647.5804C254.8291,-637.1767 252.8774,-623.9092 252,-612 250.8244,-596.0432 250.8244,-591.9568 252,-576 252.6169,-567.6264 253.7649,-558.5812 255.0026,-550.3322"/>
<polygon fill="#c0c0c0" stroke="#c0c0c0" stroke-width="2" points="258.4648,-550.8463 256.585,-540.4196 251.5523,-549.7428 258.4648,-550.8463"/>
</g>
<!-- 7 -->
<g id="node8" class="node">
<title>7</title>
<path fill="none" stroke="#d87d56" stroke-width="2" d="M303,-612C303,-612 273,-612 273,-612 267,-612 261,-606 261,-600 261,-600 261,-588 261,-588 261,-582 267,-576 273,-576 273,-576 303,-576 303,-576 309,-576 315,-582 315,-588 315,-588 315,-600 315,-600 315,-606 309,-612 303,-612"/>
<text text-anchor="middle" x="288" y="-591.5" font-family="sans" font-size="10.00" fill="#000000">join_ids</text>
</g>
<!-- 6&#45;&gt;7 -->
<g id="edge11" class="edge">
<title>6&#45;&gt;7</title>
<path fill="none" stroke="#c0c0c0" stroke-width="2" d="M267.0656,-647.8314C270.126,-639.9617 273.7779,-630.5712 277.1682,-621.8533"/>
<polygon fill="#c0c0c0" stroke="#c0c0c0" stroke-width="2" points="280.4768,-623.0019 280.8393,-612.4133 273.9527,-620.4647 280.4768,-623.0019"/>
</g>
<!-- 7&#45;&gt;3 -->
<g id="edge8" class="edge">
<title>7&#45;&gt;3</title>
<path fill="none" stroke="#c0c0c0" stroke-width="2" d="M280.9344,-575.8314C277.874,-567.9617 274.2221,-558.5712 270.8318,-549.8533"/>
<polygon fill="#c0c0c0" stroke="#c0c0c0" stroke-width="2" points="274.0473,-548.4647 267.1607,-540.4133 267.5232,-551.0019 274.0473,-548.4647"/>
</g>
<!-- 8&#45;&gt;5 -->
<g id="edge10" class="edge">
<title>8&#45;&gt;5</title>
<path fill="none" stroke="#c0c0c0" stroke-width="2" d="M322.336,-287.8314C314.0268,-279.2848 303.9736,-268.9443 294.9082,-259.6198"/>
<polygon fill="#c0c0c0" stroke="#c0c0c0" stroke-width="2" points="297.3821,-257.1435 287.9018,-252.4133 292.3631,-262.023 297.3821,-257.1435"/>
</g>
<!-- 9&#45;&gt;8 -->
<g id="edge13" class="edge">
<title>9&#45;&gt;8</title>
<path fill="none" stroke="#c0c0c0" stroke-width="2" d="M397.5696,-359.8314C388.268,-351.1337 376.9796,-340.5783 366.8714,-331.1265"/>
<polygon fill="#c0c0c0" stroke="#c0c0c0" stroke-width="2" points="369.1189,-328.4363 359.4241,-324.1628 364.3379,-333.5493 369.1189,-328.4363"/>
</g>
<!-- 10&#45;&gt;8 -->
<g id="edge14" class="edge">
<title>10&#45;&gt;8</title>
<path fill="none" stroke="#c0c0c0" stroke-width="2" d="M285.421,-359.8314C294.1529,-351.219 304.7317,-340.7851 314.2423,-331.4048"/>
<polygon fill="#c0c0c0" stroke="#c0c0c0" stroke-width="2" points="316.923,-333.6769 321.5849,-324.1628 312.0075,-328.6931 316.923,-333.6769"/>
</g>
<!-- 11&#45;&gt;8 -->
<g id="edge12" class="edge">
<title>11&#45;&gt;8</title>
<path fill="none" stroke="#c0c0c0" stroke-width="2" d="M471.4541,-431.7905C480.0976,-412.3456 489.5152,-381.4394 475,-360 454.8473,-330.2338 415.3426,-316.8742 384.2511,-310.8788"/>
<polygon fill="#c0c0c0" stroke="#c0c0c0" stroke-width="2" points="384.5203,-307.3734 374.0696,-309.1149 383.3253,-314.2707 384.5203,-307.3734"/>
</g>
<!-- 11&#45;&gt;9 -->
<g id="edge16" class="edge">
<title>11&#45;&gt;9</title>
<path fill="none" stroke="#c0c0c0" stroke-width="2" d="M450.6446,-431.8314C445.5674,-423.7079 439.4773,-413.9637 433.8824,-405.0118"/>
<polygon fill="#c0c0c0" stroke="#c0c0c0" stroke-width="2" points="436.7763,-403.0383 428.5083,-396.4133 430.8403,-406.7483 436.7763,-403.0383"/>
</g>
<!-- 12&#45;&gt;10 -->
<g id="edge18" class="edge">
<title>12&#45;&gt;10</title>
<path fill="none" stroke="#c0c0c0" stroke-width="2" d="M230.3648,-431.8314C235.9509,-423.6232 242.663,-413.7606 248.8072,-404.7323"/>
<polygon fill="#c0c0c0" stroke="#c0c0c0" stroke-width="2" points="251.736,-406.6496 254.4687,-396.4133 245.949,-402.7112 251.736,-406.6496"/>
</g>
</g>
</svg>
