<?xml version="1.0" encoding="UTF-8" standalone="no"?>
<!DOCTYPE svg PUBLIC "-//W3C//DTD SVG 1.1//EN"
 "http://www.w3.org/Graphics/SVG/1.1/DTD/svg11.dtd">
<!-- Generated by graphviz version 2.40.1 (20161225.0304)
 -->
<!-- Title: snakemake_dag Pages: 1 -->
<svg width="231pt" height="620pt"
 viewBox="0.00 0.00 230.92 620.00" xmlns="http://www.w3.org/2000/svg" xmlns:xlink="http://www.w3.org/1999/xlink">
<g id="graph0" class="graph" transform="scale(1 1) rotate(0) translate(4 616)">
<title>snakemake_dag</title>
<polygon fill="#ffffff" stroke="transparent" points="-4,4 -4,-616 226.9166,-616 226.9166,4 -4,4"/>
<!-- 0 -->
<g id="node1" class="node">
<title>0</title>
<path fill="none" stroke="#56d882" stroke-width="2" d="M189.5,-36C189.5,-36 151.5,-36 151.5,-36 145.5,-36 139.5,-30 139.5,-24 139.5,-24 139.5,-12 139.5,-12 139.5,-6 145.5,0 151.5,0 151.5,0 189.5,0 189.5,0 195.5,0 201.5,-6 201.5,-12 201.5,-12 201.5,-24 201.5,-24 201.5,-30 195.5,-36 189.5,-36"/>
<text text-anchor="middle" x="170.5" y="-15.5" font-family="sans" font-size="10.00" fill="#000000">genotype</text>
</g>
<!-- 1 -->
<g id="node2" class="node">
<title>1</title>
<path fill="none" stroke="#568ad8" stroke-width="2" d="M185.5,-108C185.5,-108 155.5,-108 155.5,-108 149.5,-108 143.5,-102 143.5,-96 143.5,-96 143.5,-84 143.5,-84 143.5,-78 149.5,-72 155.5,-72 155.5,-72 185.5,-72 185.5,-72 191.5,-72 197.5,-78 197.5,-84 197.5,-84 197.5,-96 197.5,-96 197.5,-102 191.5,-108 185.5,-108"/>
<text text-anchor="middle" x="170.5" y="-87.5" font-family="sans" font-size="10.00" fill="#000000">call_vcf</text>
</g>
<!-- 1&#45;&gt;0 -->
<g id="edge1" class="edge">
<title>1&#45;&gt;0</title>
<path fill="none" stroke="#c0c0c0" stroke-width="2" d="M170.5,-71.8314C170.5,-64.131 170.5,-54.9743 170.5,-46.4166"/>
<polygon fill="#c0c0c0" stroke="#c0c0c0" stroke-width="2" points="174.0001,-46.4132 170.5,-36.4133 167.0001,-46.4133 174.0001,-46.4132"/>
</g>
<!-- 2 -->
<g id="node3" class="node">
<title>2</title>
<path fill="none" stroke="#d86656" stroke-width="2" d="M118.5,-180C118.5,-180 88.5,-180 88.5,-180 82.5,-180 76.5,-174 76.5,-168 76.5,-168 76.5,-156 76.5,-156 76.5,-150 82.5,-144 88.5,-144 88.5,-144 118.5,-144 118.5,-144 124.5,-144 130.5,-150 130.5,-156 130.5,-156 130.5,-168 130.5,-168 130.5,-174 124.5,-180 118.5,-180"/>
<text text-anchor="middle" x="103.5" y="-159.5" font-family="sans" font-size="10.00" fill="#000000">pack</text>
</g>
<!-- 2&#45;&gt;1 -->
<g id="edge2" class="edge">
<title>2&#45;&gt;1</title>
<path fill="none" stroke="#c0c0c0" stroke-width="2" d="M120.4069,-143.8314C128.2813,-135.3694 137.792,-125.1489 146.4013,-115.8971"/>
<polygon fill="#c0c0c0" stroke="#c0c0c0" stroke-width="2" points="149.1153,-118.1183 153.3654,-108.4133 143.9908,-113.3497 149.1153,-118.1183"/>
</g>
<!-- 3 -->
<g id="node4" class="node">
<title>3</title>
<path fill="none" stroke="#d85656" stroke-width="2" d="M152,-396C152,-396 115,-396 115,-396 109,-396 103,-390 103,-384 103,-384 103,-372 103,-372 103,-366 109,-360 115,-360 115,-360 152,-360 152,-360 158,-360 164,-366 164,-372 164,-372 164,-384 164,-384 164,-390 158,-396 152,-396"/>
<text text-anchor="middle" x="133.5" y="-375.5" font-family="sans" font-size="10.00" fill="#000000">index_xg</text>
</g>
<!-- 3&#45;&gt;1 -->
<g id="edge4" class="edge">
<title>3&#45;&gt;1</title>
<path fill="none" stroke="#c0c0c0" stroke-width="2" d="M151.026,-359.8231C171.813,-336.8733 205.3062,-295.15 218.5,-252 233.0203,-204.5117 207.3462,-148.9877 188.2879,-116.8224"/>
<polygon fill="#c0c0c0" stroke="#c0c0c0" stroke-width="2" points="191.0946,-114.7041 182.8824,-108.01 185.1277,-118.3642 191.0946,-114.7041"/>
</g>
<!-- 3&#45;&gt;2 -->
<g id="edge6" class="edge">
<title>3&#45;&gt;2</title>
<path fill="none" stroke="#c0c0c0" stroke-width="2" d="M130.9938,-359.9555C125.7659,-322.3144 113.6648,-235.1867 107.4062,-190.1246"/>
<polygon fill="#c0c0c0" stroke="#c0c0c0" stroke-width="2" points="110.8626,-189.5685 106.0201,-180.1451 103.9292,-190.5315 110.8626,-189.5685"/>
</g>
<!-- 4 -->
<g id="node5" class="node">
<title>4</title>
<path fill="none" stroke="#56d8c9" stroke-width="2" d="M197.5,-252C197.5,-252 143.5,-252 143.5,-252 137.5,-252 131.5,-246 131.5,-240 131.5,-240 131.5,-228 131.5,-228 131.5,-222 137.5,-216 143.5,-216 143.5,-216 197.5,-216 197.5,-216 203.5,-216 209.5,-222 209.5,-228 209.5,-228 209.5,-240 209.5,-240 209.5,-246 203.5,-252 197.5,-252"/>
<text text-anchor="middle" x="170.5" y="-231.5" font-family="sans" font-size="10.00" fill="#000000">index_snarls</text>
</g>
<!-- 3&#45;&gt;4 -->
<g id="edge9" class="edge">
<title>3&#45;&gt;4</title>
<path fill="none" stroke="#c0c0c0" stroke-width="2" d="M138.1861,-359.7623C144.5248,-335.0928 155.8902,-290.8598 163.3125,-261.9731"/>
<polygon fill="#c0c0c0" stroke="#c0c0c0" stroke-width="2" points="166.7532,-262.6461 165.852,-252.0896 159.9734,-260.904 166.7532,-262.6461"/>
</g>
<!-- 8 -->
<g id="node9" class="node">
<title>8</title>
<path fill="none" stroke="#ced856" stroke-width="2" d="M58.5,-324C58.5,-324 28.5,-324 28.5,-324 22.5,-324 16.5,-318 16.5,-312 16.5,-312 16.5,-300 16.5,-300 16.5,-294 22.5,-288 28.5,-288 28.5,-288 58.5,-288 58.5,-288 64.5,-288 70.5,-294 70.5,-300 70.5,-300 70.5,-312 70.5,-312 70.5,-318 64.5,-324 58.5,-324"/>
<text text-anchor="middle" x="43.5" y="-303.5" font-family="sans" font-size="10.00" fill="#000000">map</text>
</g>
<!-- 3&#45;&gt;8 -->
<g id="edge13" class="edge">
<title>3&#45;&gt;8</title>
<path fill="none" stroke="#c0c0c0" stroke-width="2" d="M110.7892,-359.8314C99.704,-350.9632 86.2046,-340.1637 74.2148,-330.5718"/>
<polygon fill="#c0c0c0" stroke="#c0c0c0" stroke-width="2" points="76.1987,-327.6768 66.2035,-324.1628 71.8258,-333.1429 76.1987,-327.6768"/>
</g>
<!-- 4&#45;&gt;1 -->
<g id="edge3" class="edge">
<title>4&#45;&gt;1</title>
<path fill="none" stroke="#c0c0c0" stroke-width="2" d="M170.5,-215.7623C170.5,-191.201 170.5,-147.2474 170.5,-118.3541"/>
<polygon fill="#c0c0c0" stroke="#c0c0c0" stroke-width="2" points="174.0001,-118.0896 170.5,-108.0896 167.0001,-118.0897 174.0001,-118.0896"/>
</g>
<!-- 5 -->
<g id="node6" class="node">
<title>5</title>
<path fill="none" stroke="#56d8a9" stroke-width="2" d="M63,-252C63,-252 12,-252 12,-252 6,-252 0,-246 0,-240 0,-240 0,-228 0,-228 0,-222 6,-216 12,-216 12,-216 63,-216 63,-216 69,-216 75,-222 75,-228 75,-228 75,-240 75,-240 75,-246 69,-252 63,-252"/>
<text text-anchor="middle" x="37.5" y="-231.5" font-family="sans" font-size="10.00" fill="#000000">merge_gam</text>
</g>
<!-- 5&#45;&gt;2 -->
<g id="edge5" class="edge">
<title>5&#45;&gt;2</title>
<path fill="none" stroke="#c0c0c0" stroke-width="2" d="M54.1546,-215.8314C61.9114,-207.3694 71.2802,-197.1489 79.761,-187.8971"/>
<polygon fill="#c0c0c0" stroke="#c0c0c0" stroke-width="2" points="82.4439,-190.1499 86.6212,-180.4133 77.2838,-185.4198 82.4439,-190.1499"/>
</g>
<!-- 6 -->
<g id="node7" class="node">
<title>6</title>
<path fill="none" stroke="#56d873" stroke-width="2" d="M123.5,-612C123.5,-612 65.5,-612 65.5,-612 59.5,-612 53.5,-606 53.5,-600 53.5,-600 53.5,-588 53.5,-588 53.5,-582 59.5,-576 65.5,-576 65.5,-576 123.5,-576 123.5,-576 129.5,-576 135.5,-582 135.5,-588 135.5,-588 135.5,-600 135.5,-600 135.5,-606 129.5,-612 123.5,-612"/>
<text text-anchor="middle" x="94.5" y="-591.5" font-family="sans" font-size="10.00" fill="#000000">construct_chr</text>
</g>
<!-- 6&#45;&gt;3 -->
<g id="edge8" class="edge">
<title>6&#45;&gt;3</title>
<path fill="none" stroke="#c0c0c0" stroke-width="2" d="M110.3905,-575.8862C118.0265,-565.9979 126.3949,-553.1189 130.5,-540 144.6135,-494.8963 141.4943,-439.2199 137.6826,-406.2744"/>
<polygon fill="#c0c0c0" stroke="#c0c0c0" stroke-width="2" points="141.1131,-405.5036 136.3873,-396.0212 134.1683,-406.381 141.1131,-405.5036"/>
</g>
<!-- 7 -->
<g id="node8" class="node">
<title>7</title>
<path fill="none" stroke="#56b1d8" stroke-width="2" d="M109.5,-540C109.5,-540 79.5,-540 79.5,-540 73.5,-540 67.5,-534 67.5,-528 67.5,-528 67.5,-516 67.5,-516 67.5,-510 73.5,-504 79.5,-504 79.5,-504 109.5,-504 109.5,-504 115.5,-504 121.5,-510 121.5,-516 121.5,-516 121.5,-528 121.5,-528 121.5,-534 115.5,-540 109.5,-540"/>
<text text-anchor="middle" x="94.5" y="-519.5" font-family="sans" font-size="10.00" fill="#000000">join_ids</text>
</g>
<!-- 6&#45;&gt;7 -->
<g id="edge11" class="edge">
<title>6&#45;&gt;7</title>
<path fill="none" stroke="#c0c0c0" stroke-width="2" d="M94.5,-575.8314C94.5,-568.131 94.5,-558.9743 94.5,-550.4166"/>
<polygon fill="#c0c0c0" stroke="#c0c0c0" stroke-width="2" points="98.0001,-550.4132 94.5,-540.4133 91.0001,-550.4133 98.0001,-550.4132"/>
</g>
<!-- 10 -->
<g id="node11" class="node">
<title>10</title>
<path fill="none" stroke="#56d85b" stroke-width="2" d="M62.5,-468C62.5,-468 24.5,-468 24.5,-468 18.5,-468 12.5,-462 12.5,-456 12.5,-456 12.5,-444 12.5,-444 12.5,-438 18.5,-432 24.5,-432 24.5,-432 62.5,-432 62.5,-432 68.5,-432 74.5,-438 74.5,-444 74.5,-444 74.5,-456 74.5,-456 74.5,-462 68.5,-468 62.5,-468"/>
<text text-anchor="middle" x="43.5" y="-447.5" font-family="sans" font-size="10.00" fill="#000000">prune_vg</text>
</g>
<!-- 6&#45;&gt;10 -->
<g id="edge16" class="edge">
<title>6&#45;&gt;10</title>
<path fill="none" stroke="#c0c0c0" stroke-width="2" d="M79.3903,-575.61C71.968,-565.6462 63.555,-552.783 58.5,-540 50.6601,-520.1747 46.9177,-496.3199 45.1313,-478.1518"/>
<polygon fill="#c0c0c0" stroke="#c0c0c0" stroke-width="2" points="48.6188,-477.8551 44.2893,-468.1853 41.6436,-478.4445 48.6188,-477.8551"/>
</g>
<!-- 7&#45;&gt;3 -->
<g id="edge7" class="edge">
<title>7&#45;&gt;3</title>
<path fill="none" stroke="#c0c0c0" stroke-width="2" d="M99.4394,-503.7623C106.1207,-479.0928 118.1005,-434.8598 125.924,-405.9731"/>
<polygon fill="#c0c0c0" stroke="#c0c0c0" stroke-width="2" points="129.3648,-406.6569 128.6007,-396.0896 122.6082,-404.8269 129.3648,-406.6569"/>
</g>
<!-- 7&#45;&gt;10 -->
<g id="edge15" class="edge">
<title>7&#45;&gt;10</title>
<path fill="none" stroke="#c0c0c0" stroke-width="2" d="M81.6305,-503.8314C75.8165,-495.6232 68.8304,-485.7606 62.4354,-476.7323"/>
<polygon fill="#c0c0c0" stroke="#c0c0c0" stroke-width="2" points="65.179,-474.5505 56.5427,-468.4133 59.4669,-478.5966 65.179,-474.5505"/>
</g>
<!-- 8&#45;&gt;5 -->
<g id="edge10" class="edge">
<title>8&#45;&gt;5</title>
<path fill="none" stroke="#c0c0c0" stroke-width="2" d="M41.9859,-287.8314C41.3442,-280.131 40.5812,-270.9743 39.8681,-262.4166"/>
<polygon fill="#c0c0c0" stroke="#c0c0c0" stroke-width="2" points="43.3529,-262.088 39.0344,-252.4133 36.3771,-262.6694 43.3529,-262.088"/>
</g>
<!-- 9 -->
<g id="node10" class="node">
<title>9</title>
<path fill="none" stroke="#56a2d8" stroke-width="2" d="M67,-396C67,-396 20,-396 20,-396 14,-396 8,-390 8,-384 8,-384 8,-372 8,-372 8,-366 14,-360 20,-360 20,-360 67,-360 67,-360 73,-360 79,-366 79,-372 79,-372 79,-384 79,-384 79,-390 73,-396 67,-396"/>
<text text-anchor="middle" x="43.5" y="-375.5" font-family="sans" font-size="10.00" fill="#000000">index_gcsa</text>
</g>
<!-- 9&#45;&gt;8 -->
<g id="edge12" class="edge">
<title>9&#45;&gt;8</title>
<path fill="none" stroke="#c0c0c0" stroke-width="2" d="M43.5,-359.8314C43.5,-352.131 43.5,-342.9743 43.5,-334.4166"/>
<polygon fill="#c0c0c0" stroke="#c0c0c0" stroke-width="2" points="47.0001,-334.4132 43.5,-324.4133 40.0001,-334.4133 47.0001,-334.4132"/>
</g>
<!-- 10&#45;&gt;9 -->
<g id="edge14" class="edge">
<title>10&#45;&gt;9</title>
<path fill="none" stroke="#c0c0c0" stroke-width="2" d="M43.5,-431.8314C43.5,-424.131 43.5,-414.9743 43.5,-406.4166"/>
<polygon fill="#c0c0c0" stroke="#c0c0c0" stroke-width="2" points="47.0001,-406.4132 43.5,-396.4133 40.0001,-406.4133 47.0001,-406.4132"/>
</g>
</g>
</svg>
