<?xml version="1.0" encoding="UTF-8" standalone="no"?>
<!DOCTYPE svg PUBLIC "-//W3C//DTD SVG 1.1//EN"
 "http://www.w3.org/Graphics/SVG/1.1/DTD/svg11.dtd">
<!-- Generated by graphviz version 2.40.1 (20161225.0304)
 -->
<!-- Title: snakemake_dag Pages: 1 -->
<svg width="746pt" height="1588pt"
 viewBox="0.00 0.00 746.00 1588.00" xmlns="http://www.w3.org/2000/svg" xmlns:xlink="http://www.w3.org/1999/xlink">
<g id="graph0" class="graph" transform="scale(1 1) rotate(0) translate(4 1584)">
<title>snakemake_dag</title>
<polygon fill="#ffffff" stroke="transparent" points="-4,4 -4,-1584 742,-1584 742,4 -4,4"/>
<!-- 0 -->
<g id="node1" class="node">
<title>0</title>
<text text-anchor="start" x="503.5" y="-71.6" font-family="sans" font-weight="bold" font-size="18.00" fill="#000000">genotype</text>
<text text-anchor="start" x="442.5" y="-47.8" font-family="sans" font-size="10.00" fill="#000000"> </text>
<text text-anchor="start" x="446.5" y="-47.8" font-family="sans" font-weight="bold" font-size="14.00" fill="#000000">↪ input</text>
<text text-anchor="start" x="507.5" y="-47.8" font-family="sans" font-size="10.00" fill="#000000"> </text>
<text text-anchor="start" x="442.5" y="-28" font-family="monospace" font-size="10.00" fill="#000000">samp1/samp1&#45;ref&#45;svs.map.q5.gt.vcf.gz</text>
<text text-anchor="start" x="652.5" y="-10" font-family="sans" font-size="10.00" fill="#000000"> &#160;</text>
<polygon fill="#57d995" stroke="#57d995" points="436.5,-62 436.5,-62 666.5,-62 666.5,-62 436.5,-62"/>
<polygon fill="#57d995" stroke="#57d995" points="436.5,-22 436.5,-22 666.5,-22 666.5,-22 436.5,-22"/>
<polygon fill="none" stroke="#57d995" stroke-width="2" points="436,-1 436,-91 665,-91 665,-1 436,-1"/>
</g>
<!-- 1 -->
<g id="node2" class="node">
<title>1</title>
<text text-anchor="start" x="514" y="-311.6" font-family="sans" font-weight="bold" font-size="18.00" fill="#000000">call_vcf</text>
<text text-anchor="start" x="370.5" y="-287.8" font-family="sans" font-size="10.00" fill="#000000"> </text>
<text text-anchor="start" x="374.5" y="-287.8" font-family="sans" font-weight="bold" font-size="14.00" fill="#000000">↪ input</text>
<text text-anchor="start" x="435.5" y="-287.8" font-family="sans" font-size="10.00" fill="#000000"> </text>
<text text-anchor="start" x="370.5" y="-268" font-family="monospace" font-size="10.00" fill="#000000">{genome}&#45;{svs}.snarls</text>
<text text-anchor="start" x="370.5" y="-250" font-family="monospace" font-size="10.00" fill="#000000">{genome}&#45;{svs}.xg</text>
<text text-anchor="start" x="370.5" y="-232" font-family="monospace" font-size="10.00" fill="#000000">{sample}/{sample}&#45;{genome}&#45;{svs}.{map}.q{minq}.pack</text>
<text text-anchor="start" x="370.5" y="-214" font-family="monospace" font-size="10.00" fill="#000000">{svs}.vcf.gz</text>
<text text-anchor="start" x="370.5" y="-196" font-family="monospace" font-size="10.00" fill="#000000">{svs}.vcf.gz.tbi</text>
<text text-anchor="start" x="650.5" y="-175.8" font-family="sans" font-size="10.00" fill="#000000"> </text>
<text text-anchor="start" x="654.5" y="-175.8" font-family="sans" font-weight="bold" font-size="14.00" fill="#000000">output →</text>
<text text-anchor="start" x="727.5" y="-175.8" font-family="sans" font-size="10.00" fill="#000000"> </text>
<text text-anchor="start" x="370.5" y="-156" font-family="monospace" font-size="10.00" fill="#000000">{sample}/{sample}&#45;{genome}&#45;{svs}.{map}.q{minq}.gt.vcf.gz</text>
<text text-anchor="start" x="370.5" y="-138" font-family="monospace" font-size="10.00" fill="#000000">{sample}/{sample}&#45;{genome}&#45;{svs}.{map}.q{minq}.gt.vcf.gz.tbi</text>
<polygon fill="#57d9a7" stroke="#57d9a7" points="364.5,-302 364.5,-302 738.5,-302 738.5,-302 364.5,-302"/>
<polygon fill="#57d9a7" stroke="#57d9a7" points="364.5,-190 364.5,-190 738.5,-190 738.5,-190 364.5,-190"/>
<polygon fill="none" stroke="#57d9a7" stroke-width="2" points="364,-129 364,-331 737,-331 737,-129 364,-129"/>
</g>
<!-- 1&#45;&gt;0 -->
<g id="edge1" class="edge">
<title>1&#45;&gt;0</title>
<path fill="none" stroke="#c0c0c0" stroke-width="2" d="M550.5,-127.7766C550.5,-119.0525 550.5,-110.4526 550.5,-102.2958"/>
<polygon fill="#c0c0c0" stroke="#c0c0c0" stroke-width="2" points="554.0001,-102.225 550.5,-92.225 547.0001,-102.225 554.0001,-102.225"/>
</g>
<!-- 2 -->
<g id="node3" class="node">
<title>2</title>
<text text-anchor="start" x="359" y="-479.6" font-family="sans" font-weight="bold" font-size="18.00" fill="#000000">pack</text>
<text text-anchor="start" x="250.5" y="-455.8" font-family="sans" font-size="10.00" fill="#000000"> </text>
<text text-anchor="start" x="254.5" y="-455.8" font-family="sans" font-weight="bold" font-size="14.00" fill="#000000">↪ input</text>
<text text-anchor="start" x="315.5" y="-455.8" font-family="sans" font-size="10.00" fill="#000000"> </text>
<text text-anchor="start" x="250.5" y="-436" font-family="monospace" font-size="10.00" fill="#000000">{graph}.xg</text>
<text text-anchor="start" x="250.5" y="-418" font-family="monospace" font-size="10.00" fill="#000000">{sample}/{sample}&#45;{graph}.{map}.gam</text>
<text text-anchor="start" x="434.5" y="-397.8" font-family="sans" font-size="10.00" fill="#000000"> </text>
<text text-anchor="start" x="438.5" y="-397.8" font-family="sans" font-weight="bold" font-size="14.00" fill="#000000">output →</text>
<text text-anchor="start" x="511.5" y="-397.8" font-family="sans" font-size="10.00" fill="#000000"> </text>
<text text-anchor="start" x="250.5" y="-378" font-family="monospace" font-size="10.00" fill="#000000">{sample}/{sample}&#45;{graph}.{map}.q{minq}.pack</text>
<polygon fill="#578dd9" stroke="#578dd9" points="244.5,-470 244.5,-470 522.5,-470 522.5,-470 244.5,-470"/>
<polygon fill="#578dd9" stroke="#578dd9" points="244.5,-412 244.5,-412 522.5,-412 522.5,-412 244.5,-412"/>
<polygon fill="none" stroke="#578dd9" stroke-width="2" points="244,-369 244,-499 521,-499 521,-369 244,-369"/>
</g>
<!-- 2&#45;&gt;1 -->
<g id="edge4" class="edge">
<title>2&#45;&gt;1</title>
<path fill="none" stroke="#c0c0c0" stroke-width="2" d="M437.0448,-367.767C444.3803,-358.8597 452.0589,-349.5356 459.814,-340.1187"/>
<polygon fill="#c0c0c0" stroke="#c0c0c0" stroke-width="2" points="462.6851,-342.1381 466.3404,-332.1938 457.2816,-337.6881 462.6851,-342.1381"/>
</g>
<!-- 3 -->
<g id="node4" class="node">
<title>3</title>
<text text-anchor="start" x="379" y="-1037.6" font-family="sans" font-weight="bold" font-size="18.00" fill="#000000">index_xg</text>
<text text-anchor="start" x="344.5" y="-1013.8" font-family="sans" font-size="10.00" fill="#000000"> </text>
<text text-anchor="start" x="348.5" y="-1013.8" font-family="sans" font-weight="bold" font-size="14.00" fill="#000000">↪ input</text>
<text text-anchor="start" x="409.5" y="-1013.8" font-family="sans" font-size="10.00" fill="#000000"> </text>
<text text-anchor="start" x="344.5" y="-994" font-family="monospace" font-size="10.00" fill="#000000">{genome}&#45;{svs}&#45;1.vg</text>
<text text-anchor="start" x="344.5" y="-976" font-family="monospace" font-size="10.00" fill="#000000">{genome}&#45;{svs}&#45;2.vg</text>
<text text-anchor="start" x="344.5" y="-958" font-family="monospace" font-size="10.00" fill="#000000">{genome}&#45;{svs}.ids.mapping</text>
<text text-anchor="start" x="420.5" y="-937.8" font-family="sans" font-size="10.00" fill="#000000"> </text>
<text text-anchor="start" x="424.5" y="-937.8" font-family="sans" font-weight="bold" font-size="14.00" fill="#000000">output →</text>
<text text-anchor="start" x="497.5" y="-937.8" font-family="sans" font-size="10.00" fill="#000000"> </text>
<text text-anchor="start" x="344.5" y="-918" font-family="monospace" font-size="10.00" fill="#000000">{genome}&#45;{svs}.xg</text>
<polygon fill="#d98d57" stroke="#d98d57" points="338.5,-1028 338.5,-1028 508.5,-1028 508.5,-1028 338.5,-1028"/>
<polygon fill="#d98d57" stroke="#d98d57" points="338.5,-952 338.5,-952 508.5,-952 508.5,-952 338.5,-952"/>
<polygon fill="none" stroke="#d98d57" stroke-width="2" points="338,-909 338,-1057 507,-1057 507,-909 338,-909"/>
</g>
<!-- 3&#45;&gt;1 -->
<g id="edge2" class="edge">
<title>3&#45;&gt;1</title>
<path fill="none" stroke="#c0c0c0" stroke-width="2" d="M477.2013,-907.86C520.5858,-843.184 577.6031,-745.4588 600.5,-650 625.1556,-547.2093 606.273,-427.2174 585.0205,-341.8712"/>
<polygon fill="#c0c0c0" stroke="#c0c0c0" stroke-width="2" points="588.4084,-340.9921 582.5551,-332.161 581.6237,-342.7148 588.4084,-340.9921"/>
</g>
<!-- 3&#45;&gt;2 -->
<g id="edge5" class="edge">
<title>3&#45;&gt;2</title>
<path fill="none" stroke="#c0c0c0" stroke-width="2" d="M417.6928,-907.9139C413.7877,-847.858 408.0385,-761.5073 402.5,-686 398.1673,-626.9313 392.8447,-560.1098 388.7799,-510.1245"/>
<polygon fill="#c0c0c0" stroke="#c0c0c0" stroke-width="2" points="392.259,-509.724 387.9585,-500.0413 385.2821,-510.2925 392.259,-509.724"/>
</g>
<!-- 4 -->
<g id="node5" class="node">
<title>4</title>
<text text-anchor="start" x="458.5" y="-629.6" font-family="sans" font-weight="bold" font-size="18.00" fill="#000000">index_snarls</text>
<text text-anchor="start" x="457.5" y="-605.8" font-family="sans" font-size="10.00" fill="#000000"> </text>
<text text-anchor="start" x="461.5" y="-605.8" font-family="sans" font-weight="bold" font-size="14.00" fill="#000000">↪ input</text>
<text text-anchor="start" x="522.5" y="-605.8" font-family="sans" font-size="10.00" fill="#000000"> </text>
<text text-anchor="start" x="457.5" y="-586" font-family="monospace" font-size="10.00" fill="#000000">{genome}&#45;{svs}.xg</text>
<text text-anchor="start" x="503.5" y="-565.8" font-family="sans" font-size="10.00" fill="#000000"> </text>
<text text-anchor="start" x="507.5" y="-565.8" font-family="sans" font-weight="bold" font-size="14.00" fill="#000000">output →</text>
<text text-anchor="start" x="580.5" y="-565.8" font-family="sans" font-size="10.00" fill="#000000"> </text>
<text text-anchor="start" x="457.5" y="-546" font-family="monospace" font-size="10.00" fill="#000000">{genome}&#45;{svs}.snarls</text>
<polygon fill="#57d4d9" stroke="#57d4d9" points="451.5,-620 451.5,-620 591.5,-620 591.5,-620 451.5,-620"/>
<polygon fill="#57d4d9" stroke="#57d4d9" points="451.5,-580 451.5,-580 591.5,-580 591.5,-580 451.5,-580"/>
<polygon fill="none" stroke="#57d4d9" stroke-width="2" points="451,-537 451,-649 590,-649 590,-537 451,-537"/>
</g>
<!-- 3&#45;&gt;4 -->
<g id="edge9" class="edge">
<title>3&#45;&gt;4</title>
<path fill="none" stroke="#c0c0c0" stroke-width="2" d="M441.3954,-907.8041C459.4199,-836.0739 486.3175,-729.0323 503.6353,-660.1145"/>
<polygon fill="#c0c0c0" stroke="#c0c0c0" stroke-width="2" points="507.0761,-660.7831 506.1187,-650.2316 500.2871,-659.0771 507.0761,-660.7831"/>
</g>
<!-- 8 -->
<g id="node9" class="node">
<title>8</title>
<text text-anchor="start" x="175" y="-851.6" font-family="sans" font-weight="bold" font-size="18.00" fill="#000000">map</text>
<text text-anchor="start" x="7.5" y="-827.8" font-family="sans" font-size="10.00" fill="#000000"> </text>
<text text-anchor="start" x="11.5" y="-827.8" font-family="sans" font-weight="bold" font-size="14.00" fill="#000000">↪ input</text>
<text text-anchor="start" x="72.5" y="-827.8" font-family="sans" font-size="10.00" fill="#000000"> </text>
<text text-anchor="start" x="7.5" y="-808" font-family="monospace" font-size="10.00" fill="#000000">{genome}&#45;{svs}.gcsa</text>
<text text-anchor="start" x="7.5" y="-790" font-family="monospace" font-size="10.00" fill="#000000">{genome}&#45;{svs}.gcsa.lcp</text>
<text text-anchor="start" x="7.5" y="-772" font-family="monospace" font-size="10.00" fill="#000000">{genome}&#45;{svs}.xg</text>
<text text-anchor="start" x="7.5" y="-754" font-family="monospace" font-size="10.00" fill="#000000">{sample}/read_chunks/1/{sample}_1.part{part}.fastq.gz</text>
<text text-anchor="start" x="7.5" y="-736" font-family="monospace" font-size="10.00" fill="#000000">{sample}/read_chunks/2/{sample}_2.part{part}.fastq.gz</text>
<text text-anchor="start" x="305.5" y="-715.8" font-family="sans" font-size="10.00" fill="#000000"> </text>
<text text-anchor="start" x="309.5" y="-715.8" font-family="sans" font-weight="bold" font-size="14.00" fill="#000000">output →</text>
<text text-anchor="start" x="382.5" y="-715.8" font-family="sans" font-size="10.00" fill="#000000"> </text>
<text text-anchor="start" x="7.5" y="-696" font-family="monospace" font-size="10.00" fill="#000000">{sample}/read_chunks/{sample}&#45;{genome}&#45;{svs}.part{part}.map.gam</text>
<polygon fill="#d96957" stroke="#d96957" points="1.5,-842 1.5,-842 393.5,-842 393.5,-842 1.5,-842"/>
<polygon fill="#d96957" stroke="#d96957" points="1.5,-730 1.5,-730 393.5,-730 393.5,-730 1.5,-730"/>
<polygon fill="none" stroke="#d96957" stroke-width="2" points="1,-687 1,-871 392,-871 392,-687 1,-687"/>
</g>
<!-- 3&#45;&gt;8 -->
<g id="edge12" class="edge">
<title>3&#45;&gt;8</title>
<path fill="none" stroke="#c0c0c0" stroke-width="2" d="M339.3088,-907.907C328.8782,-898.4918 318.0826,-888.7472 307.3136,-879.0264"/>
<polygon fill="#c0c0c0" stroke="#c0c0c0" stroke-width="2" points="309.6355,-876.4073 299.8671,-872.3049 304.9451,-881.6035 309.6355,-876.4073"/>
</g>
<!-- 4&#45;&gt;1 -->
<g id="edge3" class="edge">
<title>4&#45;&gt;1</title>
<path fill="none" stroke="#c0c0c0" stroke-width="2" d="M527.6764,-535.9933C529.0505,-524.1096 530.4013,-511.6544 531.5,-500 536.3792,-448.243 540.5896,-390.7959 543.7981,-342.2425"/>
<polygon fill="#c0c0c0" stroke="#c0c0c0" stroke-width="2" points="547.3064,-342.2294 544.4674,-332.022 540.3213,-341.7719 547.3064,-342.2294"/>
</g>
<!-- 5 -->
<g id="node6" class="node">
<title>5</title>
<text text-anchor="start" x="180" y="-629.6" font-family="sans" font-weight="bold" font-size="18.00" fill="#000000">merge_gam</text>
<text text-anchor="start" x="133.5" y="-605.8" font-family="sans" font-size="10.00" fill="#000000"> </text>
<text text-anchor="start" x="137.5" y="-605.8" font-family="sans" font-weight="bold" font-size="14.00" fill="#000000">↪ input</text>
<text text-anchor="start" x="198.5" y="-605.8" font-family="sans" font-size="10.00" fill="#000000"> </text>
<text text-anchor="start" x="133.5" y="-586" font-family="monospace" font-size="10.00" fill="#000000">&lt;input function&gt;</text>
<text text-anchor="start" x="263.5" y="-565.8" font-family="sans" font-size="10.00" fill="#000000"> </text>
<text text-anchor="start" x="267.5" y="-565.8" font-family="sans" font-weight="bold" font-size="14.00" fill="#000000">output →</text>
<text text-anchor="start" x="340.5" y="-565.8" font-family="sans" font-size="10.00" fill="#000000"> </text>
<text text-anchor="start" x="133.5" y="-546" font-family="monospace" font-size="10.00" fill="#000000">{sample}/{sample}&#45;{graph}.{map}.gam</text>
<polygon fill="#57d984" stroke="#57d984" points="127.5,-620 127.5,-620 351.5,-620 351.5,-620 127.5,-620"/>
<polygon fill="#57d984" stroke="#57d984" points="127.5,-580 127.5,-580 351.5,-580 351.5,-580 127.5,-580"/>
<polygon fill="none" stroke="#57d984" stroke-width="2" points="127,-537 127,-649 350,-649 350,-537 127,-537"/>
</g>
<!-- 5&#45;&gt;2 -->
<g id="edge6" class="edge">
<title>5&#45;&gt;2</title>
<path fill="none" stroke="#c0c0c0" stroke-width="2" d="M290.4873,-535.5974C298.6875,-526.543 307.2639,-517.0732 315.7428,-507.711"/>
<polygon fill="#c0c0c0" stroke="#c0c0c0" stroke-width="2" points="318.3942,-509.9974 322.5128,-500.2358 313.2058,-505.2984 318.3942,-509.9974"/>
</g>
<!-- 6 -->
<g id="node7" class="node">
<title>6</title>
<text text-anchor="start" x="242" y="-1559.6" font-family="sans" font-weight="bold" font-size="18.00" fill="#000000">construct_chr</text>
<text text-anchor="start" x="240.5" y="-1535.8" font-family="sans" font-size="10.00" fill="#000000"> </text>
<text text-anchor="start" x="244.5" y="-1535.8" font-family="sans" font-weight="bold" font-size="14.00" fill="#000000">↪ input</text>
<text text-anchor="start" x="305.5" y="-1535.8" font-family="sans" font-size="10.00" fill="#000000"> </text>
<text text-anchor="start" x="240.5" y="-1516" font-family="monospace" font-size="10.00" fill="#000000">{genome}.fa</text>
<text text-anchor="start" x="240.5" y="-1498" font-family="monospace" font-size="10.00" fill="#000000">{svs}.vcf.gz</text>
<text text-anchor="start" x="240.5" y="-1480" font-family="monospace" font-size="10.00" fill="#000000">{svs}.vcf.gz.tbi</text>
<text text-anchor="start" x="298.5" y="-1459.8" font-family="sans" font-size="10.00" fill="#000000"> </text>
<text text-anchor="start" x="302.5" y="-1459.8" font-family="sans" font-weight="bold" font-size="14.00" fill="#000000">output →</text>
<text text-anchor="start" x="375.5" y="-1459.8" font-family="sans" font-size="10.00" fill="#000000"> </text>
<text text-anchor="start" x="240.5" y="-1440" font-family="monospace" font-size="10.00" fill="#000000">{genome}&#45;{svs}&#45;{chr}.vg</text>
<polygon fill="#60d957" stroke="#60d957" points="234.5,-1550 234.5,-1550 386.5,-1550 386.5,-1550 234.5,-1550"/>
<polygon fill="#60d957" stroke="#60d957" points="234.5,-1474 234.5,-1474 386.5,-1474 386.5,-1474 234.5,-1474"/>
<polygon fill="none" stroke="#60d957" stroke-width="2" points="234,-1431 234,-1579 385,-1579 385,-1431 234,-1431"/>
</g>
<!-- 6&#45;&gt;3 -->
<g id="edge8" class="edge">
<title>6&#45;&gt;3</title>
<path fill="none" stroke="#c0c0c0" stroke-width="2" d="M384.6623,-1429.8928C392.6026,-1418.5901 399.5657,-1406.5052 404.5,-1394 446.443,-1287.7024 442.9894,-1153.7345 434.5004,-1068.2038"/>
<polygon fill="#c0c0c0" stroke="#c0c0c0" stroke-width="2" points="437.957,-1067.6036 433.4429,-1058.0185 430.9944,-1068.3265 437.957,-1067.6036"/>
</g>
<!-- 7 -->
<g id="node8" class="node">
<title>7</title>
<text text-anchor="start" x="272" y="-1373.6" font-family="sans" font-weight="bold" font-size="18.00" fill="#000000">join_ids</text>
<text text-anchor="start" x="231.5" y="-1349.8" font-family="sans" font-size="10.00" fill="#000000"> </text>
<text text-anchor="start" x="235.5" y="-1349.8" font-family="sans" font-weight="bold" font-size="14.00" fill="#000000">↪ input</text>
<text text-anchor="start" x="296.5" y="-1349.8" font-family="sans" font-size="10.00" fill="#000000"> </text>
<text text-anchor="start" x="231.5" y="-1330" font-family="monospace" font-size="10.00" fill="#000000">{genome}&#45;{svs}&#45;1.vg</text>
<text text-anchor="start" x="231.5" y="-1312" font-family="monospace" font-size="10.00" fill="#000000">{genome}&#45;{svs}&#45;2.vg</text>
<text text-anchor="start" x="307.5" y="-1291.8" font-family="sans" font-size="10.00" fill="#000000"> </text>
<text text-anchor="start" x="311.5" y="-1291.8" font-family="sans" font-weight="bold" font-size="14.00" fill="#000000">output →</text>
<text text-anchor="start" x="384.5" y="-1291.8" font-family="sans" font-size="10.00" fill="#000000"> </text>
<text text-anchor="start" x="231.5" y="-1272" font-family="monospace" font-size="10.00" fill="#000000">{genome}&#45;{svs}.ids.mapping</text>
<polygon fill="#d9c257" stroke="#d9c257" points="225.5,-1364 225.5,-1364 395.5,-1364 395.5,-1364 225.5,-1364"/>
<polygon fill="#d9c257" stroke="#d9c257" points="225.5,-1306 225.5,-1306 395.5,-1306 395.5,-1306 225.5,-1306"/>
<polygon fill="none" stroke="#d9c257" stroke-width="2" points="225,-1263 225,-1393 394,-1393 394,-1263 225,-1263"/>
</g>
<!-- 6&#45;&gt;7 -->
<g id="edge11" class="edge">
<title>6&#45;&gt;7</title>
<path fill="none" stroke="#c0c0c0" stroke-width="2" d="M309.5,-1429.9361C309.5,-1421.4959 309.5,-1412.8888 309.5,-1404.4315"/>
<polygon fill="#c0c0c0" stroke="#c0c0c0" stroke-width="2" points="313.0001,-1404.2111 309.5,-1394.2111 306.0001,-1404.2112 313.0001,-1404.2111"/>
</g>
<!-- 10 -->
<g id="node11" class="node">
<title>10</title>
<text text-anchor="start" x="150" y="-1205.6" font-family="sans" font-weight="bold" font-size="18.00" fill="#000000">prune_vg</text>
<text text-anchor="start" x="106.5" y="-1181.8" font-family="sans" font-size="10.00" fill="#000000"> </text>
<text text-anchor="start" x="110.5" y="-1181.8" font-family="sans" font-weight="bold" font-size="14.00" fill="#000000">↪ input</text>
<text text-anchor="start" x="171.5" y="-1181.8" font-family="sans" font-size="10.00" fill="#000000"> </text>
<text text-anchor="start" x="106.5" y="-1162" font-family="monospace" font-size="10.00" fill="#000000">{genome}&#45;{svs}&#45;{chr}.vg</text>
<text text-anchor="start" x="106.5" y="-1144" font-family="monospace" font-size="10.00" fill="#000000">{genome}&#45;{svs}.ids.mapping</text>
<text text-anchor="start" x="206.5" y="-1123.8" font-family="sans" font-size="10.00" fill="#000000"> </text>
<text text-anchor="start" x="210.5" y="-1123.8" font-family="sans" font-weight="bold" font-size="14.00" fill="#000000">output →</text>
<text text-anchor="start" x="283.5" y="-1123.8" font-family="sans" font-size="10.00" fill="#000000"> </text>
<text text-anchor="start" x="106.5" y="-1104" font-family="monospace" font-size="10.00" fill="#000000">{genome}&#45;{svs}&#45;{chr}&#45;pruned.vg</text>
<polygon fill="#d99e57" stroke="#d99e57" points="100.5,-1196 100.5,-1196 294.5,-1196 294.5,-1196 100.5,-1196"/>
<polygon fill="#d99e57" stroke="#d99e57" points="100.5,-1138 100.5,-1138 294.5,-1138 294.5,-1138 100.5,-1138"/>
<polygon fill="none" stroke="#d99e57" stroke-width="2" points="100,-1095 100,-1225 293,-1225 293,-1095 100,-1095"/>
</g>
<!-- 6&#45;&gt;10 -->
<g id="edge16" class="edge">
<title>6&#45;&gt;10</title>
<path fill="none" stroke="#c0c0c0" stroke-width="2" d="M234.7257,-1429.736C226.7236,-1418.4583 219.64,-1406.4221 214.5,-1394 193.8908,-1344.1927 189.7751,-1283.3733 190.6099,-1236.2243"/>
<polygon fill="#c0c0c0" stroke="#c0c0c0" stroke-width="2" points="194.1125,-1236.1623 190.8691,-1226.0762 187.1148,-1235.9835 194.1125,-1236.1623"/>
</g>
<!-- 7&#45;&gt;3 -->
<g id="edge7" class="edge">
<title>7&#45;&gt;3</title>
<path fill="none" stroke="#c0c0c0" stroke-width="2" d="M331.1538,-1261.8887C349.2137,-1206.7502 375.0665,-1127.819 394.6623,-1067.9912"/>
<polygon fill="#c0c0c0" stroke="#c0c0c0" stroke-width="2" points="398.0878,-1068.777 397.8744,-1058.1843 391.4356,-1066.5981 398.0878,-1068.777"/>
</g>
<!-- 7&#45;&gt;10 -->
<g id="edge15" class="edge">
<title>7&#45;&gt;10</title>
<path fill="none" stroke="#c0c0c0" stroke-width="2" d="M264.8394,-1261.602C258.9022,-1252.7749 252.7824,-1243.6764 246.7583,-1234.7204"/>
<polygon fill="#c0c0c0" stroke="#c0c0c0" stroke-width="2" points="249.5066,-1232.535 241.0212,-1226.1908 243.6982,-1236.4419 249.5066,-1232.535"/>
</g>
<!-- 8&#45;&gt;5 -->
<g id="edge10" class="edge">
<title>8&#45;&gt;5</title>
<path fill="none" stroke="#c0c0c0" stroke-width="2" d="M217.5,-686C219.4899,-677.1876 221.4798,-668.3752 223.3982,-659.8793"/>
<polygon fill="#c0c0c0" stroke="#c0c0c0" stroke-width="2" points="226.8245,-660.5955 225.6132,-650.0702 219.9965,-659.0536 226.8245,-660.5955"/>
</g>
<!-- 9 -->
<g id="node10" class="node">
<title>9</title>
<text text-anchor="start" x="142" y="-1037.6" font-family="sans" font-weight="bold" font-size="18.00" fill="#000000">index_gcsa</text>
<text text-anchor="start" x="118.5" y="-1013.8" font-family="sans" font-size="10.00" fill="#000000"> </text>
<text text-anchor="start" x="122.5" y="-1013.8" font-family="sans" font-weight="bold" font-size="14.00" fill="#000000">↪ input</text>
<text text-anchor="start" x="183.5" y="-1013.8" font-family="sans" font-size="10.00" fill="#000000"> </text>
<text text-anchor="start" x="118.5" y="-994" font-family="monospace" font-size="10.00" fill="#000000">{genome}&#45;{svs}&#45;1&#45;pruned.vg</text>
<text text-anchor="start" x="118.5" y="-976" font-family="monospace" font-size="10.00" fill="#000000">{genome}&#45;{svs}&#45;2&#45;pruned.vg</text>
<text text-anchor="start" x="194.5" y="-955.8" font-family="sans" font-size="10.00" fill="#000000"> </text>
<text text-anchor="start" x="198.5" y="-955.8" font-family="sans" font-weight="bold" font-size="14.00" fill="#000000">output →</text>
<text text-anchor="start" x="271.5" y="-955.8" font-family="sans" font-size="10.00" fill="#000000"> </text>
<text text-anchor="start" x="118.5" y="-936" font-family="monospace" font-size="10.00" fill="#000000">{genome}&#45;{svs}.gcsa</text>
<text text-anchor="start" x="118.5" y="-918" font-family="monospace" font-size="10.00" fill="#000000">{genome}&#45;{svs}.gcsa.lcp</text>
<polygon fill="#579ed9" stroke="#579ed9" points="112.5,-1028 112.5,-1028 282.5,-1028 282.5,-1028 112.5,-1028"/>
<polygon fill="#579ed9" stroke="#579ed9" points="112.5,-970 112.5,-970 282.5,-970 282.5,-970 112.5,-970"/>
<polygon fill="none" stroke="#579ed9" stroke-width="2" points="112,-909 112,-1057 281,-1057 281,-909 112,-909"/>
</g>
<!-- 9&#45;&gt;8 -->
<g id="edge13" class="edge">
<title>9&#45;&gt;8</title>
<path fill="none" stroke="#c0c0c0" stroke-width="2" d="M196.5,-907.907C196.5,-899.5782 196.5,-890.9915 196.5,-882.3917"/>
<polygon fill="#c0c0c0" stroke="#c0c0c0" stroke-width="2" points="200.0001,-882.3048 196.5,-872.3049 193.0001,-882.3049 200.0001,-882.3048"/>
</g>
<!-- 10&#45;&gt;9 -->
<g id="edge14" class="edge">
<title>10&#45;&gt;9</title>
<path fill="none" stroke="#c0c0c0" stroke-width="2" d="M196.5,-1093.84C196.5,-1085.4415 196.5,-1076.7559 196.5,-1068.1133"/>
<polygon fill="#c0c0c0" stroke="#c0c0c0" stroke-width="2" points="200.0001,-1068.0073 196.5,-1058.0073 193.0001,-1068.0073 200.0001,-1068.0073"/>
</g>
</g>
</svg>
