<?xml version="1.0" encoding="UTF-8" standalone="no"?>
<!DOCTYPE svg PUBLIC "-//W3C//DTD SVG 1.1//EN"
 "http://www.w3.org/Graphics/SVG/1.1/DTD/svg11.dtd">
<!-- Generated by graphviz version 2.40.1 (20161225.0304)
 -->
<!-- Title: snakemake_dag Pages: 1 -->
<svg width="564pt" height="728pt"
 viewBox="0.00 0.00 564.00 728.00" xmlns="http://www.w3.org/2000/svg" xmlns:xlink="http://www.w3.org/1999/xlink">
<g id="graph0" class="graph" transform="scale(1 1) rotate(0) translate(4 724)">
<title>snakemake_dag</title>
<polygon fill="#ffffff" stroke="transparent" points="-4,4 -4,-724 560,-724 560,4 -4,4"/>
<!-- 0 -->
<g id="node1" class="node">
<title>0</title>
<path fill="none" stroke="#56d892" stroke-width="2" stroke-dasharray="5,2" d="M469,-36C469,-36 431,-36 431,-36 425,-36 419,-30 419,-24 419,-24 419,-12 419,-12 419,-6 425,0 431,0 431,0 469,0 469,0 475,0 481,-6 481,-12 481,-12 481,-24 481,-24 481,-30 475,-36 469,-36"/>
<text text-anchor="middle" x="450" y="-15.5" font-family="sans" font-size="10.00" fill="#000000">genotype</text>
</g>
<!-- 1 -->
<g id="node2" class="node">
<title>1</title>
<path fill="none" stroke="#56d8b9" stroke-width="2" stroke-dasharray="5,2" d="M465,-108C465,-108 435,-108 435,-108 429,-108 423,-102 423,-96 423,-96 423,-84 423,-84 423,-78 429,-72 435,-72 435,-72 465,-72 465,-72 471,-72 477,-78 477,-84 477,-84 477,-96 477,-96 477,-102 471,-108 465,-108"/>
<text text-anchor="middle" x="450" y="-87.5" font-family="sans" font-size="10.00" fill="#000000">call_vcf</text>
</g>
<!-- 1&#45;&gt;0 -->
<g id="edge1" class="edge">
<title>1&#45;&gt;0</title>
<path fill="none" stroke="#c0c0c0" stroke-width="2" d="M450,-71.8314C450,-64.131 450,-54.9743 450,-46.4166"/>
<polygon fill="#c0c0c0" stroke="#c0c0c0" stroke-width="2" points="453.5001,-46.4132 450,-36.4133 446.5001,-46.4133 453.5001,-46.4132"/>
</g>
<!-- 2 -->
<g id="node3" class="node">
<title>2</title>
<path fill="none" stroke="#56b1d8" stroke-width="2" stroke-dasharray="5,2" d="M271,-180C271,-180 241,-180 241,-180 235,-180 229,-174 229,-168 229,-168 229,-156 229,-156 229,-150 235,-144 241,-144 241,-144 271,-144 271,-144 277,-144 283,-150 283,-156 283,-156 283,-168 283,-168 283,-174 277,-180 271,-180"/>
<text text-anchor="middle" x="256" y="-165" font-family="sans" font-size="10.00" fill="#000000">pack</text>
<text text-anchor="middle" x="256" y="-154" font-family="sans" font-size="10.00" fill="#000000">minq: 5</text>
</g>
<!-- 2&#45;&gt;1 -->
<g id="edge2" class="edge">
<title>2&#45;&gt;1</title>
<path fill="none" stroke="#c0c0c0" stroke-width="2" d="M283.384,-151.8369C317.3248,-139.2403 375.2999,-117.7238 413.1283,-103.6844"/>
<polygon fill="#c0c0c0" stroke="#c0c0c0" stroke-width="2" points="414.598,-106.8722 422.7553,-100.1114 412.1623,-100.3096 414.598,-106.8722"/>
</g>
<!-- 3 -->
<g id="node4" class="node">
<title>3</title>
<path fill="none" stroke="#d8d356" stroke-width="2" stroke-dasharray="5,2" d="M308.5,-560C308.5,-560 271.5,-560 271.5,-560 265.5,-560 259.5,-554 259.5,-548 259.5,-548 259.5,-536 259.5,-536 259.5,-530 265.5,-524 271.5,-524 271.5,-524 308.5,-524 308.5,-524 314.5,-524 320.5,-530 320.5,-536 320.5,-536 320.5,-548 320.5,-548 320.5,-554 314.5,-560 308.5,-560"/>
<text text-anchor="middle" x="290" y="-539.5" font-family="sans" font-size="10.00" fill="#000000">index_xg</text>
</g>
<!-- 3&#45;&gt;1 -->
<g id="edge3" class="edge">
<title>3&#45;&gt;1</title>
<path fill="none" stroke="#c0c0c0" stroke-width="2" d="M320.8496,-529.4927C367.3438,-508.3585 450,-460.8882 450,-390.5 450,-390.5 450,-390.5 450,-236.5 450,-195.4539 450,-147.9388 450,-118.4229"/>
<polygon fill="#c0c0c0" stroke="#c0c0c0" stroke-width="2" points="453.5001,-118.0429 450,-108.0429 446.5001,-118.0429 453.5001,-118.0429"/>
</g>
<!-- 3&#45;&gt;2 -->
<g id="edge5" class="edge">
<title>3&#45;&gt;2</title>
<path fill="none" stroke="#c0c0c0" stroke-width="2" d="M259.2395,-540.1535C184.6045,-533.8469 0,-506.5212 0,-390.5 0,-390.5 0,-390.5 0,-313.5 0,-213.0846 147.6795,-177.8083 218.7069,-166.6489"/>
<polygon fill="#c0c0c0" stroke="#c0c0c0" stroke-width="2" points="219.2294,-170.1098 228.6035,-165.1725 218.1965,-163.1864 219.2294,-170.1098"/>
</g>
<!-- 4 -->
<g id="node5" class="node">
<title>4</title>
<path fill="none" stroke="#567bd8" stroke-width="2" stroke-dasharray="5,2" d="M544,-254.5C544,-254.5 490,-254.5 490,-254.5 484,-254.5 478,-248.5 478,-242.5 478,-242.5 478,-230.5 478,-230.5 478,-224.5 484,-218.5 490,-218.5 490,-218.5 544,-218.5 544,-218.5 550,-218.5 556,-224.5 556,-230.5 556,-230.5 556,-242.5 556,-242.5 556,-248.5 550,-254.5 544,-254.5"/>
<text text-anchor="middle" x="517" y="-234" font-family="sans" font-size="10.00" fill="#000000">index_snarls</text>
</g>
<!-- 3&#45;&gt;4 -->
<g id="edge10" class="edge">
<title>3&#45;&gt;4</title>
<path fill="none" stroke="#c0c0c0" stroke-width="2" d="M320.7205,-536.3335C365.2873,-527.4945 444.671,-509.2204 464,-488 521.368,-425.0182 522.6461,-316.0961 519.5884,-264.7863"/>
<polygon fill="#c0c0c0" stroke="#c0c0c0" stroke-width="2" points="523.0757,-264.4814 518.8887,-254.749 516.0927,-264.9682 523.0757,-264.4814"/>
</g>
<!-- 9 -->
<g id="node10" class="node">
<title>9</title>
<path fill="none" stroke="#56d8c9" stroke-width="2" stroke-dasharray="5,2" d="M345,-334C345,-334 277,-334 277,-334 271,-334 265,-328 265,-322 265,-322 265,-305 265,-305 265,-299 271,-293 277,-293 277,-293 345,-293 345,-293 351,-293 357,-299 357,-305 357,-305 357,-322 357,-322 357,-328 351,-334 345,-334"/>
<text text-anchor="middle" x="311" y="-322" font-family="sans" font-size="10.00" fill="#000000">map_gaffe</text>
<text text-anchor="middle" x="311" y="-311" font-family="sans" font-size="10.00" fill="#000000">part: 01</text>
<text text-anchor="middle" x="311" y="-300" font-family="sans" font-size="10.00" fill="#000000">sample: samp1</text>
</g>
<!-- 3&#45;&gt;9 -->
<g id="edge15" class="edge">
<title>3&#45;&gt;9</title>
<path fill="none" stroke="#c0c0c0" stroke-width="2" d="M320.7826,-530.3066C338.9448,-521.6197 360.3934,-507.8186 371,-488 378.3148,-474.3322 377.0386,-390.5497 368,-370 363.2706,-359.2475 355.4746,-349.4495 347.1446,-341.1436"/>
<polygon fill="#c0c0c0" stroke="#c0c0c0" stroke-width="2" points="349.4491,-338.5068 339.7505,-334.242 344.6726,-343.6241 349.4491,-338.5068"/>
</g>
<!-- 10 -->
<g id="node11" class="node">
<title>10</title>
<path fill="none" stroke="#56d8c9" stroke-width="2" stroke-dasharray="5,2" d="M235,-334C235,-334 167,-334 167,-334 161,-334 155,-328 155,-322 155,-322 155,-305 155,-305 155,-299 161,-293 167,-293 167,-293 235,-293 235,-293 241,-293 247,-299 247,-305 247,-305 247,-322 247,-322 247,-328 241,-334 235,-334"/>
<text text-anchor="middle" x="201" y="-322" font-family="sans" font-size="10.00" fill="#000000">map_gaffe</text>
<text text-anchor="middle" x="201" y="-311" font-family="sans" font-size="10.00" fill="#000000">part: 00</text>
<text text-anchor="middle" x="201" y="-300" font-family="sans" font-size="10.00" fill="#000000">sample: samp1</text>
</g>
<!-- 3&#45;&gt;10 -->
<g id="edge19" class="edge">
<title>3&#45;&gt;10</title>
<path fill="none" stroke="#c0c0c0" stroke-width="2" d="M259.1757,-538.4475C207.3132,-531.7665 106.175,-515.4751 85,-488 73.9632,-473.6794 77.0761,-389.6229 90,-370 102.8411,-350.5028 124.5938,-337.4018 145.4574,-328.7697"/>
<polygon fill="#c0c0c0" stroke="#c0c0c0" stroke-width="2" points="146.8744,-331.9746 154.9456,-325.1112 144.356,-325.4433 146.8744,-331.9746"/>
</g>
<!-- 11 -->
<g id="node12" class="node">
<title>11</title>
<path fill="none" stroke="#568ad8" stroke-width="2" stroke-dasharray="5,2" d="M331,-411C331,-411 257,-411 257,-411 251,-411 245,-405 245,-399 245,-399 245,-382 245,-382 245,-376 251,-370 257,-370 257,-370 331,-370 331,-370 337,-370 343,-376 343,-382 343,-382 343,-399 343,-399 343,-405 337,-411 331,-411"/>
<text text-anchor="middle" x="294" y="-399" font-family="sans" font-size="10.00" fill="#000000">index_minimizer</text>
<text text-anchor="middle" x="294" y="-388" font-family="sans" font-size="10.00" fill="#000000">k: 39</text>
<text text-anchor="middle" x="294" y="-377" font-family="sans" font-size="10.00" fill="#000000">w: 15</text>
</g>
<!-- 3&#45;&gt;11 -->
<g id="edge23" class="edge">
<title>3&#45;&gt;11</title>
<path fill="none" stroke="#c0c0c0" stroke-width="2" d="M320.57,-525.0368C333.7462,-515.9378 347.7699,-503.4061 355,-488 362.7416,-471.504 362.2943,-463.6986 355,-447 350.218,-436.0527 342.153,-426.2788 333.4273,-418.0637"/>
<polygon fill="#c0c0c0" stroke="#c0c0c0" stroke-width="2" points="335.4834,-415.2119 325.6551,-411.2553 330.8709,-420.4773 335.4834,-415.2119"/>
</g>
<!-- 12 -->
<g id="node13" class="node">
<title>12</title>
<path fill="none" stroke="#ced856" stroke-width="2" stroke-dasharray="5,2" d="M177,-408.5C177,-408.5 111,-408.5 111,-408.5 105,-408.5 99,-402.5 99,-396.5 99,-396.5 99,-384.5 99,-384.5 99,-378.5 105,-372.5 111,-372.5 111,-372.5 177,-372.5 177,-372.5 183,-372.5 189,-378.5 189,-384.5 189,-384.5 189,-396.5 189,-396.5 189,-402.5 183,-408.5 177,-408.5"/>
<text text-anchor="middle" x="144" y="-393.5" font-family="sans" font-size="10.00" fill="#000000">index_distance</text>
<text text-anchor="middle" x="144" y="-382.5" font-family="sans" font-size="10.00" fill="#000000">graph: ref&#45;svs</text>
</g>
<!-- 3&#45;&gt;12 -->
<g id="edge25" class="edge">
<title>3&#45;&gt;12</title>
<path fill="none" stroke="#c0c0c0" stroke-width="2" d="M259.4718,-538.0431C209.7686,-530.9052 114.8857,-514.1409 95,-488 77.9405,-465.5742 97.244,-436.2954 116.4157,-415.6967"/>
<polygon fill="#c0c0c0" stroke="#c0c0c0" stroke-width="2" points="118.9295,-418.1321 123.4054,-408.5291 113.9179,-413.2449 118.9295,-418.1321"/>
</g>
<!-- 13 -->
<g id="node14" class="node">
<title>13</title>
<path fill="none" stroke="#566bd8" stroke-width="2" stroke-dasharray="5,2" d="M334,-488C334,-488 246,-488 246,-488 240,-488 234,-482 234,-476 234,-476 234,-459 234,-459 234,-453 240,-447 246,-447 246,-447 334,-447 334,-447 340,-447 346,-453 346,-459 346,-459 346,-476 346,-476 346,-482 340,-488 334,-488"/>
<text text-anchor="middle" x="290" y="-476" font-family="sans" font-size="10.00" fill="#000000">index_gbwt_greedy</text>
<text text-anchor="middle" x="290" y="-465" font-family="sans" font-size="10.00" fill="#000000">graph: ref&#45;svs</text>
<text text-anchor="middle" x="290" y="-454" font-family="sans" font-size="10.00" fill="#000000">n: 16</text>
</g>
<!-- 3&#45;&gt;13 -->
<g id="edge27" class="edge">
<title>3&#45;&gt;13</title>
<path fill="none" stroke="#c0c0c0" stroke-width="2" d="M290,-523.9656C290,-516.3118 290,-507.1674 290,-498.4898"/>
<polygon fill="#c0c0c0" stroke="#c0c0c0" stroke-width="2" points="293.5001,-498.2678 290,-488.2679 286.5001,-498.2679 293.5001,-498.2678"/>
</g>
<!-- 14 -->
<g id="node15" class="node">
<title>14</title>
<path fill="none" stroke="#61d856" stroke-width="2" stroke-dasharray="5,2" d="M204,-485.5C204,-485.5 116,-485.5 116,-485.5 110,-485.5 104,-479.5 104,-473.5 104,-473.5 104,-461.5 104,-461.5 104,-455.5 110,-449.5 116,-449.5 116,-449.5 204,-449.5 204,-449.5 210,-449.5 216,-455.5 216,-461.5 216,-461.5 216,-473.5 216,-473.5 216,-479.5 210,-485.5 204,-485.5"/>
<text text-anchor="middle" x="160" y="-465" font-family="sans" font-size="10.00" fill="#000000">index_trivial_snarls</text>
</g>
<!-- 3&#45;&gt;14 -->
<g id="edge28" class="edge">
<title>3&#45;&gt;14</title>
<path fill="none" stroke="#c0c0c0" stroke-width="2" d="M259.1918,-524.3445C241.5613,-514.2409 219.239,-501.4485 200.2367,-490.5587"/>
<polygon fill="#c0c0c0" stroke="#c0c0c0" stroke-width="2" points="201.9067,-487.4818 191.4901,-485.5463 198.4261,-493.5552 201.9067,-487.4818"/>
</g>
<!-- 4&#45;&gt;1 -->
<g id="edge4" class="edge">
<title>4&#45;&gt;1</title>
<path fill="none" stroke="#c0c0c0" stroke-width="2" d="M508.6499,-218.2419C497.0518,-192.882 475.976,-146.7982 462.4993,-117.3305"/>
<polygon fill="#c0c0c0" stroke="#c0c0c0" stroke-width="2" points="465.5869,-115.6664 458.2449,-108.028 459.2211,-118.5778 465.5869,-115.6664"/>
</g>
<!-- 5 -->
<g id="node6" class="node">
<title>5</title>
<path fill="none" stroke="#d8ac56" stroke-width="2" stroke-dasharray="5,2" d="M307.5,-257C307.5,-257 204.5,-257 204.5,-257 198.5,-257 192.5,-251 192.5,-245 192.5,-245 192.5,-228 192.5,-228 192.5,-222 198.5,-216 204.5,-216 204.5,-216 307.5,-216 307.5,-216 313.5,-216 319.5,-222 319.5,-228 319.5,-228 319.5,-245 319.5,-245 319.5,-251 313.5,-257 307.5,-257"/>
<text text-anchor="middle" x="256" y="-245" font-family="sans" font-size="10.00" fill="#000000">merge_gam</text>
<text text-anchor="middle" x="256" y="-234" font-family="sans" font-size="10.00" fill="#000000">graph: ref&#45;svs</text>
<text text-anchor="middle" x="256" y="-223" font-family="sans" font-size="10.00" fill="#000000">map: gaffe39k15w16N</text>
</g>
<!-- 5&#45;&gt;2 -->
<g id="edge6" class="edge">
<title>5&#45;&gt;2</title>
<path fill="none" stroke="#c0c0c0" stroke-width="2" d="M256,-215.7476C256,-207.8767 256,-198.7743 256,-190.3232"/>
<polygon fill="#c0c0c0" stroke="#c0c0c0" stroke-width="2" points="259.5001,-190.1086 256,-180.1087 252.5001,-190.1087 259.5001,-190.1086"/>
</g>
<!-- 6 -->
<g id="node7" class="node">
<title>6</title>
<path fill="none" stroke="#d87d56" stroke-width="2" stroke-dasharray="5,2" d="M269,-720C269,-720 211,-720 211,-720 205,-720 199,-714 199,-708 199,-708 199,-680 199,-680 199,-674 205,-668 211,-668 211,-668 269,-668 269,-668 275,-668 281,-674 281,-680 281,-680 281,-708 281,-708 281,-714 275,-720 269,-720"/>
<text text-anchor="middle" x="240" y="-708" font-family="sans" font-size="10.00" fill="#000000">construct_chr</text>
<text text-anchor="middle" x="240" y="-697" font-family="sans" font-size="10.00" fill="#000000">chr: 1</text>
<text text-anchor="middle" x="240" y="-686" font-family="sans" font-size="10.00" fill="#000000">genome: ref</text>
<text text-anchor="middle" x="240" y="-675" font-family="sans" font-size="10.00" fill="#000000">svs: svs</text>
</g>
<!-- 6&#45;&gt;3 -->
<g id="edge7" class="edge">
<title>6&#45;&gt;3</title>
<path fill="none" stroke="#c0c0c0" stroke-width="2" d="M240.5972,-667.8341C241.7956,-647.6276 245.1058,-619.2794 254,-596 257.6412,-586.4697 263.2103,-576.9255 268.888,-568.5696"/>
<polygon fill="#c0c0c0" stroke="#c0c0c0" stroke-width="2" points="271.8009,-570.5133 274.7679,-560.3424 266.1058,-566.4431 271.8009,-570.5133"/>
</g>
<!-- 8 -->
<g id="node9" class="node">
<title>8</title>
<path fill="none" stroke="#b6d856" stroke-width="2" stroke-dasharray="5,2" d="M305,-632C305,-632 275,-632 275,-632 269,-632 263,-626 263,-620 263,-620 263,-608 263,-608 263,-602 269,-596 275,-596 275,-596 305,-596 305,-596 311,-596 317,-602 317,-608 317,-608 317,-620 317,-620 317,-626 311,-632 305,-632"/>
<text text-anchor="middle" x="290" y="-611.5" font-family="sans" font-size="10.00" fill="#000000">join_ids</text>
</g>
<!-- 6&#45;&gt;8 -->
<g id="edge13" class="edge">
<title>6&#45;&gt;8</title>
<path fill="none" stroke="#c0c0c0" stroke-width="2" d="M256.3719,-667.805C261.7832,-659.1469 267.8093,-649.5052 273.2486,-640.8022"/>
<polygon fill="#c0c0c0" stroke="#c0c0c0" stroke-width="2" points="276.3222,-642.4882 278.6542,-632.1532 270.3862,-638.7782 276.3222,-642.4882"/>
</g>
<!-- 7 -->
<g id="node8" class="node">
<title>7</title>
<path fill="none" stroke="#d87d56" stroke-width="2" stroke-dasharray="5,2" d="M371,-720C371,-720 313,-720 313,-720 307,-720 301,-714 301,-708 301,-708 301,-680 301,-680 301,-674 307,-668 313,-668 313,-668 371,-668 371,-668 377,-668 383,-674 383,-680 383,-680 383,-708 383,-708 383,-714 377,-720 371,-720"/>
<text text-anchor="middle" x="342" y="-708" font-family="sans" font-size="10.00" fill="#000000">construct_chr</text>
<text text-anchor="middle" x="342" y="-697" font-family="sans" font-size="10.00" fill="#000000">chr: 2</text>
<text text-anchor="middle" x="342" y="-686" font-family="sans" font-size="10.00" fill="#000000">genome: ref</text>
<text text-anchor="middle" x="342" y="-675" font-family="sans" font-size="10.00" fill="#000000">svs: svs</text>
</g>
<!-- 7&#45;&gt;3 -->
<g id="edge8" class="edge">
<title>7&#45;&gt;3</title>
<path fill="none" stroke="#c0c0c0" stroke-width="2" d="M340.7472,-667.8234C339.0711,-647.6111 335.1538,-619.2604 326,-596 322.264,-586.5064 316.6671,-576.9731 310.9931,-568.6157"/>
<polygon fill="#c0c0c0" stroke="#c0c0c0" stroke-width="2" points="313.7805,-566.4961 305.1271,-560.3831 308.0797,-570.5582 313.7805,-566.4961"/>
</g>
<!-- 7&#45;&gt;8 -->
<g id="edge14" class="edge">
<title>7&#45;&gt;8</title>
<path fill="none" stroke="#c0c0c0" stroke-width="2" d="M324.9733,-667.805C319.3455,-659.1469 313.0784,-649.5052 307.4215,-640.8022"/>
<polygon fill="#c0c0c0" stroke="#c0c0c0" stroke-width="2" points="310.1841,-638.6302 301.7996,-632.1532 304.315,-642.4452 310.1841,-638.6302"/>
</g>
<!-- 8&#45;&gt;3 -->
<g id="edge9" class="edge">
<title>8&#45;&gt;3</title>
<path fill="none" stroke="#c0c0c0" stroke-width="2" d="M290,-595.8314C290,-588.131 290,-578.9743 290,-570.4166"/>
<polygon fill="#c0c0c0" stroke="#c0c0c0" stroke-width="2" points="293.5001,-570.4132 290,-560.4133 286.5001,-570.4133 293.5001,-570.4132"/>
</g>
<!-- 9&#45;&gt;5 -->
<g id="edge11" class="edge">
<title>9&#45;&gt;5</title>
<path fill="none" stroke="#c0c0c0" stroke-width="2" d="M296.261,-292.8654C290.2809,-284.4933 283.2663,-274.6729 276.7825,-265.5954"/>
<polygon fill="#c0c0c0" stroke="#c0c0c0" stroke-width="2" points="279.4402,-263.2946 270.7797,-257.1915 273.744,-267.3632 279.4402,-263.2946"/>
</g>
<!-- 10&#45;&gt;5 -->
<g id="edge12" class="edge">
<title>10&#45;&gt;5</title>
<path fill="none" stroke="#c0c0c0" stroke-width="2" d="M215.739,-292.8654C221.7191,-284.4933 228.7337,-274.6729 235.2175,-265.5954"/>
<polygon fill="#c0c0c0" stroke="#c0c0c0" stroke-width="2" points="238.256,-267.3632 241.2203,-257.1915 232.5598,-263.2946 238.256,-267.3632"/>
</g>
<!-- 11&#45;&gt;9 -->
<g id="edge16" class="edge">
<title>11&#45;&gt;9</title>
<path fill="none" stroke="#c0c0c0" stroke-width="2" d="M298.5557,-369.8654C300.3088,-361.9248 302.3496,-352.6814 304.2652,-344.0048"/>
<polygon fill="#c0c0c0" stroke="#c0c0c0" stroke-width="2" points="307.6935,-344.711 306.4317,-334.1915 300.8581,-343.2018 307.6935,-344.711"/>
</g>
<!-- 11&#45;&gt;10 -->
<g id="edge20" class="edge">
<title>11&#45;&gt;10</title>
<path fill="none" stroke="#c0c0c0" stroke-width="2" d="M269.0777,-369.8654C258.2362,-360.8891 245.3839,-350.2479 233.7827,-340.6427"/>
<polygon fill="#c0c0c0" stroke="#c0c0c0" stroke-width="2" points="235.9257,-337.8731 225.9911,-334.1915 231.4616,-343.2649 235.9257,-337.8731"/>
</g>
<!-- 12&#45;&gt;9 -->
<g id="edge17" class="edge">
<title>12&#45;&gt;9</title>
<path fill="none" stroke="#c0c0c0" stroke-width="2" d="M183.1541,-372.4469C205.1973,-362.2833 233.0491,-349.4414 257.1254,-338.3404"/>
<polygon fill="#c0c0c0" stroke="#c0c0c0" stroke-width="2" points="258.8756,-341.3876 266.4913,-334.022 255.9446,-335.0308 258.8756,-341.3876"/>
</g>
<!-- 12&#45;&gt;10 -->
<g id="edge21" class="edge">
<title>12&#45;&gt;10</title>
<path fill="none" stroke="#c0c0c0" stroke-width="2" d="M157.5082,-372.2521C164.1439,-363.2881 172.2954,-352.2764 179.7408,-342.2186"/>
<polygon fill="#c0c0c0" stroke="#c0c0c0" stroke-width="2" points="182.6433,-344.1802 185.78,-334.0603 177.0171,-340.0153 182.6433,-344.1802"/>
</g>
<!-- 13&#45;&gt;9 -->
<g id="edge18" class="edge">
<title>13&#45;&gt;9</title>
<path fill="none" stroke="#c0c0c0" stroke-width="2" d="M322.1627,-446.8463C333.8406,-437.463 345.7047,-425.254 352,-411 359.3618,-394.3311 357.626,-387.332 352,-370 348.8007,-360.144 343.1651,-350.5692 337.0774,-342.1871"/>
<polygon fill="#c0c0c0" stroke="#c0c0c0" stroke-width="2" points="339.8061,-339.9944 330.9125,-334.2364 334.2742,-344.2838 339.8061,-339.9944"/>
</g>
<!-- 13&#45;&gt;10 -->
<g id="edge22" class="edge">
<title>13&#45;&gt;10</title>
<path fill="none" stroke="#c0c0c0" stroke-width="2" d="M266.0959,-446.778C255.732,-436.8001 244.1339,-424.1569 236,-411 223.1145,-390.1573 214.0308,-363.8824 208.352,-343.8615"/>
<polygon fill="#c0c0c0" stroke="#c0c0c0" stroke-width="2" points="211.6806,-342.7629 205.6906,-334.0239 204.9235,-344.5909 211.6806,-342.7629"/>
</g>
<!-- 13&#45;&gt;11 -->
<g id="edge24" class="edge">
<title>13&#45;&gt;11</title>
<path fill="none" stroke="#c0c0c0" stroke-width="2" d="M291.0719,-446.8654C291.4799,-439.0111 291.9542,-429.8822 292.4006,-421.2879"/>
<polygon fill="#c0c0c0" stroke="#c0c0c0" stroke-width="2" points="295.9015,-421.3597 292.9251,-411.1915 288.911,-420.9965 295.9015,-421.3597"/>
</g>
<!-- 14&#45;&gt;12 -->
<g id="edge26" class="edge">
<title>14&#45;&gt;12</title>
<path fill="none" stroke="#c0c0c0" stroke-width="2" d="M156.2082,-449.2521C154.3153,-440.1422 151.9828,-428.9174 149.8656,-418.7282"/>
<polygon fill="#c0c0c0" stroke="#c0c0c0" stroke-width="2" points="153.2259,-417.6957 147.7646,-408.6169 146.3723,-419.1199 153.2259,-417.6957"/>
</g>
</g>
</svg>
