<?xml version="1.0" encoding="UTF-8" standalone="no"?>
<!DOCTYPE svg PUBLIC "-//W3C//DTD SVG 1.1//EN"
 "http://www.w3.org/Graphics/SVG/1.1/DTD/svg11.dtd">
<!-- Generated by graphviz version 2.40.1 (20161225.0304)
 -->
<!-- Title: snakemake_dag Pages: 1 -->
<svg width="902pt" height="1774pt"
 viewBox="0.00 0.00 901.50 1774.00" xmlns="http://www.w3.org/2000/svg" xmlns:xlink="http://www.w3.org/1999/xlink">
<g id="graph0" class="graph" transform="scale(1 1) rotate(0) translate(4 1770)">
<title>snakemake_dag</title>
<polygon fill="#ffffff" stroke="transparent" points="-4,4 -4,-1770 897.5,-1770 897.5,4 -4,4"/>
<!-- 0 -->
<g id="node1" class="node">
<title>0</title>
<text text-anchor="start" x="140.5" y="-71.6" font-family="sans" font-weight="bold" font-size="18.00" fill="#000000">genotype</text>
<text text-anchor="start" x="46.5" y="-47.8" font-family="sans" font-size="10.00" fill="#000000"> </text>
<text text-anchor="start" x="50.5" y="-47.8" font-family="sans" font-weight="bold" font-size="14.00" fill="#000000">↪ input</text>
<text text-anchor="start" x="111.5" y="-47.8" font-family="sans" font-size="10.00" fill="#000000"> </text>
<text text-anchor="start" x="46.5" y="-28" font-family="monospace" font-size="10.00" fill="#000000">samp1/samp1&#45;ref&#45;svs.gaffe39k15w16N.q5.gt.vcf.gz</text>
<text text-anchor="start" x="322.5" y="-10" font-family="sans" font-size="10.00" fill="#000000"> &#160;</text>
<polygon fill="#d9d457" stroke="#d9d457" points="40.5,-62 40.5,-62 336.5,-62 336.5,-62 40.5,-62"/>
<polygon fill="#d9d457" stroke="#d9d457" points="40.5,-22 40.5,-22 336.5,-22 336.5,-22 40.5,-22"/>
<polygon fill="none" stroke="#d9d457" stroke-width="2" points="40,-1 40,-91 335,-91 335,-1 40,-1"/>
</g>
<!-- 1 -->
<g id="node2" class="node">
<title>1</title>
<text text-anchor="start" x="151" y="-311.6" font-family="sans" font-weight="bold" font-size="18.00" fill="#000000">call_vcf</text>
<text text-anchor="start" x="7.5" y="-287.8" font-family="sans" font-size="10.00" fill="#000000"> </text>
<text text-anchor="start" x="11.5" y="-287.8" font-family="sans" font-weight="bold" font-size="14.00" fill="#000000">↪ input</text>
<text text-anchor="start" x="72.5" y="-287.8" font-family="sans" font-size="10.00" fill="#000000"> </text>
<text text-anchor="start" x="7.5" y="-268" font-family="monospace" font-size="10.00" fill="#000000">{genome}&#45;{svs}.snarls</text>
<text text-anchor="start" x="7.5" y="-250" font-family="monospace" font-size="10.00" fill="#000000">{genome}&#45;{svs}.xg</text>
<text text-anchor="start" x="7.5" y="-232" font-family="monospace" font-size="10.00" fill="#000000">{sample}/{sample}&#45;{genome}&#45;{svs}.{map}.q{minq}.pack</text>
<text text-anchor="start" x="7.5" y="-214" font-family="monospace" font-size="10.00" fill="#000000">{svs}.vcf.gz</text>
<text text-anchor="start" x="7.5" y="-196" font-family="monospace" font-size="10.00" fill="#000000">{svs}.vcf.gz.tbi</text>
<text text-anchor="start" x="287.5" y="-175.8" font-family="sans" font-size="10.00" fill="#000000"> </text>
<text text-anchor="start" x="291.5" y="-175.8" font-family="sans" font-weight="bold" font-size="14.00" fill="#000000">output →</text>
<text text-anchor="start" x="364.5" y="-175.8" font-family="sans" font-size="10.00" fill="#000000"> </text>
<text text-anchor="start" x="7.5" y="-156" font-family="monospace" font-size="10.00" fill="#000000">{sample}/{sample}&#45;{genome}&#45;{svs}.{map}.q{minq}.gt.vcf.gz</text>
<text text-anchor="start" x="7.5" y="-138" font-family="monospace" font-size="10.00" fill="#000000">{sample}/{sample}&#45;{genome}&#45;{svs}.{map}.q{minq}.gt.vcf.gz.tbi</text>
<polygon fill="#84d957" stroke="#84d957" points="1.5,-302 1.5,-302 375.5,-302 375.5,-302 1.5,-302"/>
<polygon fill="#84d957" stroke="#84d957" points="1.5,-190 1.5,-190 375.5,-190 375.5,-190 1.5,-190"/>
<polygon fill="none" stroke="#84d957" stroke-width="2" points="1,-129 1,-331 374,-331 374,-129 1,-129"/>
</g>
<!-- 1&#45;&gt;0 -->
<g id="edge1" class="edge">
<title>1&#45;&gt;0</title>
<path fill="none" stroke="#c0c0c0" stroke-width="2" d="M187.5,-127.7766C187.5,-119.0525 187.5,-110.4526 187.5,-102.2958"/>
<polygon fill="#c0c0c0" stroke="#c0c0c0" stroke-width="2" points="191.0001,-102.225 187.5,-92.225 184.0001,-102.225 191.0001,-102.225"/>
</g>
<!-- 2 -->
<g id="node3" class="node">
<title>2</title>
<text text-anchor="start" x="332" y="-479.6" font-family="sans" font-weight="bold" font-size="18.00" fill="#000000">pack</text>
<text text-anchor="start" x="223.5" y="-455.8" font-family="sans" font-size="10.00" fill="#000000"> </text>
<text text-anchor="start" x="227.5" y="-455.8" font-family="sans" font-weight="bold" font-size="14.00" fill="#000000">↪ input</text>
<text text-anchor="start" x="288.5" y="-455.8" font-family="sans" font-size="10.00" fill="#000000"> </text>
<text text-anchor="start" x="223.5" y="-436" font-family="monospace" font-size="10.00" fill="#000000">{graph}.xg</text>
<text text-anchor="start" x="223.5" y="-418" font-family="monospace" font-size="10.00" fill="#000000">{sample}/{sample}&#45;{graph}.{map}.gam</text>
<text text-anchor="start" x="407.5" y="-397.8" font-family="sans" font-size="10.00" fill="#000000"> </text>
<text text-anchor="start" x="411.5" y="-397.8" font-family="sans" font-weight="bold" font-size="14.00" fill="#000000">output →</text>
<text text-anchor="start" x="484.5" y="-397.8" font-family="sans" font-size="10.00" fill="#000000"> </text>
<text text-anchor="start" x="223.5" y="-378" font-family="monospace" font-size="10.00" fill="#000000">{sample}/{sample}&#45;{graph}.{map}.q{minq}.pack</text>
<polygon fill="#d9c257" stroke="#d9c257" points="217.5,-470 217.5,-470 495.5,-470 495.5,-470 217.5,-470"/>
<polygon fill="#d9c257" stroke="#d9c257" points="217.5,-412 217.5,-412 495.5,-412 495.5,-412 217.5,-412"/>
<polygon fill="none" stroke="#d9c257" stroke-width="2" points="217,-369 217,-499 494,-499 494,-369 217,-369"/>
</g>
<!-- 2&#45;&gt;1 -->
<g id="edge2" class="edge">
<title>2&#45;&gt;1</title>
<path fill="none" stroke="#c0c0c0" stroke-width="2" d="M300.9552,-367.767C293.6197,-358.8597 285.9411,-349.5356 278.186,-340.1187"/>
<polygon fill="#c0c0c0" stroke="#c0c0c0" stroke-width="2" points="280.7184,-337.6881 271.6596,-332.1938 275.3149,-342.1381 280.7184,-337.6881"/>
</g>
<!-- 3 -->
<g id="node4" class="node">
<title>3</title>
<text text-anchor="start" x="472" y="-1391.6" font-family="sans" font-weight="bold" font-size="18.00" fill="#000000">index_xg</text>
<text text-anchor="start" x="437.5" y="-1367.8" font-family="sans" font-size="10.00" fill="#000000"> </text>
<text text-anchor="start" x="441.5" y="-1367.8" font-family="sans" font-weight="bold" font-size="14.00" fill="#000000">↪ input</text>
<text text-anchor="start" x="502.5" y="-1367.8" font-family="sans" font-size="10.00" fill="#000000"> </text>
<text text-anchor="start" x="437.5" y="-1348" font-family="monospace" font-size="10.00" fill="#000000">{genome}&#45;{svs}&#45;1.vg</text>
<text text-anchor="start" x="437.5" y="-1330" font-family="monospace" font-size="10.00" fill="#000000">{genome}&#45;{svs}&#45;2.vg</text>
<text text-anchor="start" x="437.5" y="-1312" font-family="monospace" font-size="10.00" fill="#000000">{genome}&#45;{svs}.ids.mapping</text>
<text text-anchor="start" x="513.5" y="-1291.8" font-family="sans" font-size="10.00" fill="#000000"> </text>
<text text-anchor="start" x="517.5" y="-1291.8" font-family="sans" font-weight="bold" font-size="14.00" fill="#000000">output →</text>
<text text-anchor="start" x="590.5" y="-1291.8" font-family="sans" font-size="10.00" fill="#000000"> </text>
<text text-anchor="start" x="437.5" y="-1272" font-family="monospace" font-size="10.00" fill="#000000">{genome}&#45;{svs}.xg</text>
<polygon fill="#95d957" stroke="#95d957" points="431.5,-1382 431.5,-1382 601.5,-1382 601.5,-1382 431.5,-1382"/>
<polygon fill="#95d957" stroke="#95d957" points="431.5,-1306 431.5,-1306 601.5,-1306 601.5,-1306 431.5,-1306"/>
<polygon fill="none" stroke="#95d957" stroke-width="2" points="431,-1263 431,-1411 600,-1411 600,-1263 431,-1263"/>
</g>
<!-- 3&#45;&gt;1 -->
<g id="edge4" class="edge">
<title>3&#45;&gt;1</title>
<path fill="none" stroke="#c0c0c0" stroke-width="2" d="M429.9888,-1319.8134C370.0905,-1304.0504 291.4268,-1275.4194 237.5,-1226 151.6293,-1147.3067 119.5,-1108.475 119.5,-992 119.5,-992 119.5,-992 119.5,-593 119.5,-507.8809 137.7867,-413.4245 155.394,-342.2056"/>
<polygon fill="#c0c0c0" stroke="#c0c0c0" stroke-width="2" points="158.837,-342.8647 157.872,-332.3139 152.0468,-341.1636 158.837,-342.8647"/>
</g>
<!-- 3&#45;&gt;2 -->
<g id="edge6" class="edge">
<title>3&#45;&gt;2</title>
<path fill="none" stroke="#c0c0c0" stroke-width="2" d="M429.5714,-1304.3227C394.7798,-1286.5643 357.8494,-1260.9495 336.5,-1226 282.1068,-1136.9568 317.5,-1096.3423 317.5,-992 317.5,-992 317.5,-992 317.5,-788 317.5,-691.9702 331.4952,-582.1199 342.499,-510.5909"/>
<polygon fill="#c0c0c0" stroke="#c0c0c0" stroke-width="2" points="346.0177,-510.7413 344.0987,-500.3217 339.1011,-509.6638 346.0177,-510.7413"/>
</g>
<!-- 4 -->
<g id="node5" class="node">
<title>4</title>
<text text-anchor="start" x="156.5" y="-824.6" font-family="sans" font-weight="bold" font-size="18.00" fill="#000000">index_snarls</text>
<text text-anchor="start" x="155.5" y="-800.8" font-family="sans" font-size="10.00" fill="#000000"> </text>
<text text-anchor="start" x="159.5" y="-800.8" font-family="sans" font-weight="bold" font-size="14.00" fill="#000000">↪ input</text>
<text text-anchor="start" x="220.5" y="-800.8" font-family="sans" font-size="10.00" fill="#000000"> </text>
<text text-anchor="start" x="155.5" y="-781" font-family="monospace" font-size="10.00" fill="#000000">{genome}&#45;{svs}.xg</text>
<text text-anchor="start" x="201.5" y="-760.8" font-family="sans" font-size="10.00" fill="#000000"> </text>
<text text-anchor="start" x="205.5" y="-760.8" font-family="sans" font-weight="bold" font-size="14.00" fill="#000000">output →</text>
<text text-anchor="start" x="278.5" y="-760.8" font-family="sans" font-size="10.00" fill="#000000"> </text>
<text text-anchor="start" x="155.5" y="-741" font-family="monospace" font-size="10.00" fill="#000000">{genome}&#45;{svs}.snarls</text>
<polygon fill="#d99e57" stroke="#d99e57" points="149.5,-815 149.5,-815 289.5,-815 289.5,-815 149.5,-815"/>
<polygon fill="#d99e57" stroke="#d99e57" points="149.5,-775 149.5,-775 289.5,-775 289.5,-775 149.5,-775"/>
<polygon fill="none" stroke="#d99e57" stroke-width="2" points="149,-732 149,-844 288,-844 288,-732 149,-732"/>
</g>
<!-- 3&#45;&gt;4 -->
<g id="edge9" class="edge">
<title>3&#45;&gt;4</title>
<path fill="none" stroke="#c0c0c0" stroke-width="2" d="M429.8733,-1312.1665C385.583,-1294.9828 334.4542,-1267.5687 303.5,-1226 221.4513,-1115.8162 212.2907,-948.0833 214.4062,-855.421"/>
<polygon fill="#c0c0c0" stroke="#c0c0c0" stroke-width="2" points="217.9076,-855.4174 214.6884,-845.3235 210.9103,-855.2218 217.9076,-855.4174"/>
</g>
<!-- 8 -->
<g id="node9" class="node">
<title>8</title>
<text text-anchor="start" x="568" y="-869.6" font-family="sans" font-weight="bold" font-size="18.00" fill="#000000">map_gaffe</text>
<text text-anchor="start" x="388.5" y="-845.8" font-family="sans" font-size="10.00" fill="#000000"> </text>
<text text-anchor="start" x="392.5" y="-845.8" font-family="sans" font-weight="bold" font-size="14.00" fill="#000000">↪ input</text>
<text text-anchor="start" x="453.5" y="-845.8" font-family="sans" font-size="10.00" fill="#000000"> </text>
<text text-anchor="start" x="388.5" y="-826" font-family="monospace" font-size="10.00" fill="#000000">{genome}&#45;{svs}.N{n}.gbwt</text>
<text text-anchor="start" x="388.5" y="-808" font-family="monospace" font-size="10.00" fill="#000000">{genome}&#45;{svs}.dist</text>
<text text-anchor="start" x="388.5" y="-790" font-family="monospace" font-size="10.00" fill="#000000">{genome}&#45;{svs}.k{k}.w{w}.N{n}.min</text>
<text text-anchor="start" x="388.5" y="-772" font-family="monospace" font-size="10.00" fill="#000000">{genome}&#45;{svs}.xg</text>
<text text-anchor="start" x="388.5" y="-754" font-family="monospace" font-size="10.00" fill="#000000">{sample}/read_chunks/1/{sample}_1.part{part}.fastq.gz</text>
<text text-anchor="start" x="388.5" y="-736" font-family="monospace" font-size="10.00" fill="#000000">{sample}/read_chunks/2/{sample}_2.part{part}.fastq.gz</text>
<text text-anchor="start" x="770.5" y="-715.8" font-family="sans" font-size="10.00" fill="#000000"> </text>
<text text-anchor="start" x="774.5" y="-715.8" font-family="sans" font-weight="bold" font-size="14.00" fill="#000000">output →</text>
<text text-anchor="start" x="847.5" y="-715.8" font-family="sans" font-size="10.00" fill="#000000"> </text>
<text text-anchor="start" x="388.5" y="-696" font-family="monospace" font-size="10.00" fill="#000000">{sample}/read_chunks/{sample}&#45;{genome}&#45;{svs}.part{part}.gaffe{k}k{w}w{n}N.gam</text>
<polygon fill="#57d9b9" stroke="#57d9b9" points="382.5,-860 382.5,-860 858.5,-860 858.5,-860 382.5,-860"/>
<polygon fill="#57d9b9" stroke="#57d9b9" points="382.5,-730 382.5,-730 858.5,-730 858.5,-730 382.5,-730"/>
<polygon fill="none" stroke="#57d9b9" stroke-width="2" points="382,-687 382,-889 857,-889 857,-687 382,-687"/>
</g>
<!-- 3&#45;&gt;8 -->
<g id="edge14" class="edge">
<title>3&#45;&gt;8</title>
<path fill="none" stroke="#c0c0c0" stroke-width="2" d="M564.9831,-1261.9535C571.0301,-1250.2807 576.4815,-1238.0782 580.5,-1226 615.9476,-1119.4563 623.5369,-990.7585 623.5782,-900.5326"/>
<polygon fill="#c0c0c0" stroke="#c0c0c0" stroke-width="2" points="627.0775,-900.2662 623.5505,-890.2757 620.0776,-900.2852 627.0775,-900.2662"/>
</g>
<!-- 9 -->
<g id="node10" class="node">
<title>9</title>
<text text-anchor="start" x="654.5" y="-1037.6" font-family="sans" font-weight="bold" font-size="18.00" fill="#000000">index_minimizer</text>
<text text-anchor="start" x="654.5" y="-1013.8" font-family="sans" font-size="10.00" fill="#000000"> </text>
<text text-anchor="start" x="658.5" y="-1013.8" font-family="sans" font-weight="bold" font-size="14.00" fill="#000000">↪ input</text>
<text text-anchor="start" x="719.5" y="-1013.8" font-family="sans" font-size="10.00" fill="#000000"> </text>
<text text-anchor="start" x="654.5" y="-994" font-family="monospace" font-size="10.00" fill="#000000">{graph}.N{n}.gbwt</text>
<text text-anchor="start" x="654.5" y="-976" font-family="monospace" font-size="10.00" fill="#000000">{graph}.xg</text>
<text text-anchor="start" x="737.5" y="-955.8" font-family="sans" font-size="10.00" fill="#000000"> </text>
<text text-anchor="start" x="741.5" y="-955.8" font-family="sans" font-weight="bold" font-size="14.00" fill="#000000">output →</text>
<text text-anchor="start" x="814.5" y="-955.8" font-family="sans" font-size="10.00" fill="#000000"> </text>
<text text-anchor="start" x="654.5" y="-936" font-family="monospace" font-size="10.00" fill="#000000">{graph}.k{k}.w{w}.N{n}.min</text>
<polygon fill="#d97b57" stroke="#d97b57" points="648.5,-1028 648.5,-1028 825.5,-1028 825.5,-1028 648.5,-1028"/>
<polygon fill="#d97b57" stroke="#d97b57" points="648.5,-970 648.5,-970 825.5,-970 825.5,-970 648.5,-970"/>
<polygon fill="none" stroke="#d97b57" stroke-width="2" points="648.5,-927 648.5,-1057 824.5,-1057 824.5,-927 648.5,-927"/>
</g>
<!-- 3&#45;&gt;9 -->
<g id="edge17" class="edge">
<title>3&#45;&gt;9</title>
<path fill="none" stroke="#c0c0c0" stroke-width="2" d="M601.1927,-1266.4912C613.1732,-1253.9158 624.4585,-1240.2488 633.5,-1226 666.5584,-1173.9025 651.1538,-1150.2546 676.5,-1094 680.5194,-1085.0792 685.1198,-1075.9474 689.946,-1066.9919"/>
<polygon fill="#c0c0c0" stroke="#c0c0c0" stroke-width="2" points="693.0791,-1068.558 694.8343,-1058.1095 686.9465,-1065.1829 693.0791,-1068.558"/>
</g>
<!-- 10 -->
<g id="node11" class="node">
<title>10</title>
<text text-anchor="start" x="435.5" y="-1037.6" font-family="sans" font-weight="bold" font-size="18.00" fill="#000000">index_distance</text>
<text text-anchor="start" x="435.5" y="-1013.8" font-family="sans" font-size="10.00" fill="#000000"> </text>
<text text-anchor="start" x="439.5" y="-1013.8" font-family="sans" font-weight="bold" font-size="14.00" fill="#000000">↪ input</text>
<text text-anchor="start" x="500.5" y="-1013.8" font-family="sans" font-size="10.00" fill="#000000"> </text>
<text text-anchor="start" x="435.5" y="-994" font-family="monospace" font-size="10.00" fill="#000000">{graph}.trivial.snarls</text>
<text text-anchor="start" x="435.5" y="-976" font-family="monospace" font-size="10.00" fill="#000000">{graph}.xg</text>
<text text-anchor="start" x="503.5" y="-955.8" font-family="sans" font-size="10.00" fill="#000000"> </text>
<text text-anchor="start" x="507.5" y="-955.8" font-family="sans" font-weight="bold" font-size="14.00" fill="#000000">output →</text>
<text text-anchor="start" x="580.5" y="-955.8" font-family="sans" font-size="10.00" fill="#000000"> </text>
<text text-anchor="start" x="435.5" y="-936" font-family="monospace" font-size="10.00" fill="#000000">{graph}.dist</text>
<polygon fill="#57d972" stroke="#57d972" points="429.5,-1028 429.5,-1028 591.5,-1028 591.5,-1028 429.5,-1028"/>
<polygon fill="#57d972" stroke="#57d972" points="429.5,-970 429.5,-970 591.5,-970 591.5,-970 429.5,-970"/>
<polygon fill="none" stroke="#57d972" stroke-width="2" points="429,-927 429,-1057 590,-1057 590,-927 429,-927"/>
</g>
<!-- 3&#45;&gt;10 -->
<g id="edge19" class="edge">
<title>3&#45;&gt;10</title>
<path fill="none" stroke="#c0c0c0" stroke-width="2" d="M551.2485,-1261.8065C555.486,-1250.0532 559.1386,-1237.8662 561.5,-1226 572.9502,-1168.4616 575.2018,-1151.0442 561.5,-1094 559.3693,-1085.1292 556.331,-1076.1605 552.7792,-1067.4141"/>
<polygon fill="#c0c0c0" stroke="#c0c0c0" stroke-width="2" points="555.9079,-1065.8298 548.7421,-1058.0258 549.4772,-1068.5951 555.9079,-1065.8298"/>
</g>
<!-- 11 -->
<g id="node12" class="node">
<title>11</title>
<text text-anchor="start" x="692.5" y="-1205.6" font-family="sans" font-weight="bold" font-size="18.00" fill="#000000">index_gbwt_greedy</text>
<text text-anchor="start" x="692.5" y="-1181.8" font-family="sans" font-size="10.00" fill="#000000"> </text>
<text text-anchor="start" x="696.5" y="-1181.8" font-family="sans" font-weight="bold" font-size="14.00" fill="#000000">↪ input</text>
<text text-anchor="start" x="757.5" y="-1181.8" font-family="sans" font-size="10.00" fill="#000000"> </text>
<text text-anchor="start" x="692.5" y="-1162" font-family="monospace" font-size="10.00" fill="#000000">{graph}.xg</text>
<text text-anchor="start" x="805.5" y="-1141.8" font-family="sans" font-size="10.00" fill="#000000"> </text>
<text text-anchor="start" x="809.5" y="-1141.8" font-family="sans" font-weight="bold" font-size="14.00" fill="#000000">output →</text>
<text text-anchor="start" x="882.5" y="-1141.8" font-family="sans" font-size="10.00" fill="#000000"> </text>
<text text-anchor="start" x="692.5" y="-1122" font-family="monospace" font-size="10.00" fill="#000000">{graph}.N{n}.gbwt</text>
<text text-anchor="start" x="692.5" y="-1104" font-family="monospace" font-size="10.00" fill="#000000">{graph}.N{n}.gg</text>
<polygon fill="#a7d957" stroke="#a7d957" points="686.5,-1196 686.5,-1196 893.5,-1196 893.5,-1196 686.5,-1196"/>
<polygon fill="#a7d957" stroke="#a7d957" points="686.5,-1156 686.5,-1156 893.5,-1156 893.5,-1156 686.5,-1156"/>
<polygon fill="none" stroke="#a7d957" stroke-width="2" points="686.5,-1095 686.5,-1225 892.5,-1225 892.5,-1095 686.5,-1095"/>
</g>
<!-- 3&#45;&gt;11 -->
<g id="edge20" class="edge">
<title>3&#45;&gt;11</title>
<path fill="none" stroke="#c0c0c0" stroke-width="2" d="M601.0682,-1281.7242C625.615,-1265.8673 652.7388,-1248.3457 678.5775,-1231.6543"/>
<polygon fill="#c0c0c0" stroke="#c0c0c0" stroke-width="2" points="680.7847,-1234.3953 687.2853,-1226.0292 676.9863,-1228.5154 680.7847,-1234.3953"/>
</g>
<!-- 12 -->
<g id="node13" class="node">
<title>12</title>
<text text-anchor="start" x="353.5" y="-1196.6" font-family="sans" font-weight="bold" font-size="18.00" fill="#000000">index_trivial_snarls</text>
<text text-anchor="start" x="353.5" y="-1172.8" font-family="sans" font-size="10.00" fill="#000000"> </text>
<text text-anchor="start" x="357.5" y="-1172.8" font-family="sans" font-weight="bold" font-size="14.00" fill="#000000">↪ input</text>
<text text-anchor="start" x="418.5" y="-1172.8" font-family="sans" font-size="10.00" fill="#000000"> </text>
<text text-anchor="start" x="353.5" y="-1153" font-family="monospace" font-size="10.00" fill="#000000">{genome}&#45;{svs}.xg</text>
<text text-anchor="start" x="465.5" y="-1132.8" font-family="sans" font-size="10.00" fill="#000000"> </text>
<text text-anchor="start" x="469.5" y="-1132.8" font-family="sans" font-weight="bold" font-size="14.00" fill="#000000">output →</text>
<text text-anchor="start" x="542.5" y="-1132.8" font-family="sans" font-size="10.00" fill="#000000"> </text>
<text text-anchor="start" x="353.5" y="-1113" font-family="monospace" font-size="10.00" fill="#000000">{genome}&#45;{svs}.trivial.snarls</text>
<polygon fill="#72d957" stroke="#72d957" points="347.5,-1187 347.5,-1187 553.5,-1187 553.5,-1187 347.5,-1187"/>
<polygon fill="#72d957" stroke="#72d957" points="347.5,-1147 347.5,-1147 553.5,-1147 553.5,-1147 347.5,-1147"/>
<polygon fill="none" stroke="#72d957" stroke-width="2" points="347,-1104 347,-1216 552,-1216 552,-1104 347,-1104"/>
</g>
<!-- 3&#45;&gt;12 -->
<g id="edge21" class="edge">
<title>3&#45;&gt;12</title>
<path fill="none" stroke="#c0c0c0" stroke-width="2" d="M487.5101,-1261.9361C483.1458,-1250.232 478.6619,-1238.2069 474.3733,-1226.7056"/>
<polygon fill="#c0c0c0" stroke="#c0c0c0" stroke-width="2" points="477.597,-1225.3331 470.8236,-1217.1861 471.0381,-1227.7788 477.597,-1225.3331"/>
</g>
<!-- 4&#45;&gt;1 -->
<g id="edge3" class="edge">
<title>4&#45;&gt;1</title>
<path fill="none" stroke="#c0c0c0" stroke-width="2" d="M215.3281,-730.9065C210.2676,-639.8159 200.2731,-459.9151 193.7412,-342.3423"/>
<polygon fill="#c0c0c0" stroke="#c0c0c0" stroke-width="2" points="197.2286,-342.0151 193.1791,-332.2247 190.2393,-342.4034 197.2286,-342.0151"/>
</g>
<!-- 5 -->
<g id="node6" class="node">
<title>5</title>
<text text-anchor="start" x="480" y="-629.6" font-family="sans" font-weight="bold" font-size="18.00" fill="#000000">merge_gam</text>
<text text-anchor="start" x="433.5" y="-605.8" font-family="sans" font-size="10.00" fill="#000000"> </text>
<text text-anchor="start" x="437.5" y="-605.8" font-family="sans" font-weight="bold" font-size="14.00" fill="#000000">↪ input</text>
<text text-anchor="start" x="498.5" y="-605.8" font-family="sans" font-size="10.00" fill="#000000"> </text>
<text text-anchor="start" x="433.5" y="-586" font-family="monospace" font-size="10.00" fill="#000000">&lt;input function&gt;</text>
<text text-anchor="start" x="563.5" y="-565.8" font-family="sans" font-size="10.00" fill="#000000"> </text>
<text text-anchor="start" x="567.5" y="-565.8" font-family="sans" font-weight="bold" font-size="14.00" fill="#000000">output →</text>
<text text-anchor="start" x="640.5" y="-565.8" font-family="sans" font-size="10.00" fill="#000000"> </text>
<text text-anchor="start" x="433.5" y="-546" font-family="monospace" font-size="10.00" fill="#000000">{sample}/{sample}&#45;{graph}.{map}.gam</text>
<polygon fill="#578dd9" stroke="#578dd9" points="427.5,-620 427.5,-620 651.5,-620 651.5,-620 427.5,-620"/>
<polygon fill="#578dd9" stroke="#578dd9" points="427.5,-580 427.5,-580 651.5,-580 651.5,-580 427.5,-580"/>
<polygon fill="none" stroke="#578dd9" stroke-width="2" points="427,-537 427,-649 650,-649 650,-537 427,-537"/>
</g>
<!-- 5&#45;&gt;2 -->
<g id="edge5" class="edge">
<title>5&#45;&gt;2</title>
<path fill="none" stroke="#c0c0c0" stroke-width="2" d="M472.6913,-535.822C461.868,-526.4181 450.5228,-516.5608 439.3317,-506.8373"/>
<polygon fill="#c0c0c0" stroke="#c0c0c0" stroke-width="2" points="441.4612,-504.051 431.6169,-500.1343 436.87,-509.3351 441.4612,-504.051"/>
</g>
<!-- 6 -->
<g id="node7" class="node">
<title>6</title>
<text text-anchor="start" x="448" y="-1745.6" font-family="sans" font-weight="bold" font-size="18.00" fill="#000000">construct_chr</text>
<text text-anchor="start" x="446.5" y="-1721.8" font-family="sans" font-size="10.00" fill="#000000"> </text>
<text text-anchor="start" x="450.5" y="-1721.8" font-family="sans" font-weight="bold" font-size="14.00" fill="#000000">↪ input</text>
<text text-anchor="start" x="511.5" y="-1721.8" font-family="sans" font-size="10.00" fill="#000000"> </text>
<text text-anchor="start" x="446.5" y="-1702" font-family="monospace" font-size="10.00" fill="#000000">{genome}.fa</text>
<text text-anchor="start" x="446.5" y="-1684" font-family="monospace" font-size="10.00" fill="#000000">{svs}.vcf.gz</text>
<text text-anchor="start" x="446.5" y="-1666" font-family="monospace" font-size="10.00" fill="#000000">{svs}.vcf.gz.tbi</text>
<text text-anchor="start" x="504.5" y="-1645.8" font-family="sans" font-size="10.00" fill="#000000"> </text>
<text text-anchor="start" x="508.5" y="-1645.8" font-family="sans" font-weight="bold" font-size="14.00" fill="#000000">output →</text>
<text text-anchor="start" x="581.5" y="-1645.8" font-family="sans" font-size="10.00" fill="#000000"> </text>
<text text-anchor="start" x="446.5" y="-1626" font-family="monospace" font-size="10.00" fill="#000000">{genome}&#45;{svs}&#45;{chr}.vg</text>
<polygon fill="#d96957" stroke="#d96957" points="440.5,-1736 440.5,-1736 592.5,-1736 592.5,-1736 440.5,-1736"/>
<polygon fill="#d96957" stroke="#d96957" points="440.5,-1660 440.5,-1660 592.5,-1660 592.5,-1660 440.5,-1660"/>
<polygon fill="none" stroke="#d96957" stroke-width="2" points="440,-1617 440,-1765 591,-1765 591,-1617 440,-1617"/>
</g>
<!-- 6&#45;&gt;3 -->
<g id="edge7" class="edge">
<title>6&#45;&gt;3</title>
<path fill="none" stroke="#c0c0c0" stroke-width="2" d="M486.0391,-1615.7276C482.5027,-1603.9325 479.4562,-1591.7541 477.5,-1580 467.8686,-1522.1293 467.8686,-1505.8707 477.5,-1448 478.9213,-1439.4599 480.9182,-1430.6958 483.2603,-1422.0175"/>
<polygon fill="#c0c0c0" stroke="#c0c0c0" stroke-width="2" points="486.6627,-1422.8489 486.0391,-1412.2724 479.931,-1420.9293 486.6627,-1422.8489"/>
</g>
<!-- 7 -->
<g id="node8" class="node">
<title>7</title>
<text text-anchor="start" x="535" y="-1559.6" font-family="sans" font-weight="bold" font-size="18.00" fill="#000000">join_ids</text>
<text text-anchor="start" x="494.5" y="-1535.8" font-family="sans" font-size="10.00" fill="#000000"> </text>
<text text-anchor="start" x="498.5" y="-1535.8" font-family="sans" font-weight="bold" font-size="14.00" fill="#000000">↪ input</text>
<text text-anchor="start" x="559.5" y="-1535.8" font-family="sans" font-size="10.00" fill="#000000"> </text>
<text text-anchor="start" x="494.5" y="-1516" font-family="monospace" font-size="10.00" fill="#000000">{genome}&#45;{svs}&#45;1.vg</text>
<text text-anchor="start" x="494.5" y="-1498" font-family="monospace" font-size="10.00" fill="#000000">{genome}&#45;{svs}&#45;2.vg</text>
<text text-anchor="start" x="570.5" y="-1477.8" font-family="sans" font-size="10.00" fill="#000000"> </text>
<text text-anchor="start" x="574.5" y="-1477.8" font-family="sans" font-weight="bold" font-size="14.00" fill="#000000">output →</text>
<text text-anchor="start" x="647.5" y="-1477.8" font-family="sans" font-size="10.00" fill="#000000"> </text>
<text text-anchor="start" x="494.5" y="-1458" font-family="monospace" font-size="10.00" fill="#000000">{genome}&#45;{svs}.ids.mapping</text>
<polygon fill="#57d4d9" stroke="#57d4d9" points="488.5,-1550 488.5,-1550 658.5,-1550 658.5,-1550 488.5,-1550"/>
<polygon fill="#57d4d9" stroke="#57d4d9" points="488.5,-1492 488.5,-1492 658.5,-1492 658.5,-1492 488.5,-1492"/>
<polygon fill="none" stroke="#57d4d9" stroke-width="2" points="488,-1449 488,-1579 657,-1579 657,-1449 488,-1449"/>
</g>
<!-- 6&#45;&gt;7 -->
<g id="edge11" class="edge">
<title>6&#45;&gt;7</title>
<path fill="none" stroke="#c0c0c0" stroke-width="2" d="M539.6731,-1615.9361C542.4509,-1607.3104 545.2848,-1598.5104 548.066,-1589.8741"/>
<polygon fill="#c0c0c0" stroke="#c0c0c0" stroke-width="2" points="551.4439,-1590.8026 551.1778,-1580.2111 544.7809,-1588.6568 551.4439,-1590.8026"/>
</g>
<!-- 7&#45;&gt;3 -->
<g id="edge8" class="edge">
<title>7&#45;&gt;3</title>
<path fill="none" stroke="#c0c0c0" stroke-width="2" d="M551.1942,-1447.84C548.4309,-1439.259 545.5709,-1430.3781 542.7279,-1421.5497"/>
<polygon fill="#c0c0c0" stroke="#c0c0c0" stroke-width="2" points="546.0518,-1420.453 539.6549,-1412.0073 539.3888,-1422.5988 546.0518,-1420.453"/>
</g>
<!-- 8&#45;&gt;5 -->
<g id="edge10" class="edge">
<title>8&#45;&gt;5</title>
<path fill="none" stroke="#c0c0c0" stroke-width="2" d="M577.1022,-685.9312C573.4033,-677.0265 569.7256,-668.1728 566.1929,-659.668"/>
<polygon fill="#c0c0c0" stroke="#c0c0c0" stroke-width="2" points="569.3408,-658.1222 562.2724,-650.2299 562.8763,-660.8075 569.3408,-658.1222"/>
</g>
<!-- 9&#45;&gt;8 -->
<g id="edge15" class="edge">
<title>9&#45;&gt;8</title>
<path fill="none" stroke="#c0c0c0" stroke-width="2" d="M698.5135,-925.767C693.5581,-917.1269 688.3778,-908.0947 683.1423,-898.966"/>
<polygon fill="#c0c0c0" stroke="#c0c0c0" stroke-width="2" points="686.1224,-897.127 678.1111,-890.1938 680.0502,-900.6097 686.1224,-897.127"/>
</g>
<!-- 10&#45;&gt;8 -->
<g id="edge12" class="edge">
<title>10&#45;&gt;8</title>
<path fill="none" stroke="#c0c0c0" stroke-width="2" d="M545.2138,-925.767C549.8247,-917.216 554.6427,-908.2809 559.5132,-899.2483"/>
<polygon fill="#c0c0c0" stroke="#c0c0c0" stroke-width="2" points="562.73,-900.6569 564.3955,-890.1938 556.5686,-897.3346 562.73,-900.6569"/>
</g>
<!-- 11&#45;&gt;8 -->
<g id="edge13" class="edge">
<title>11&#45;&gt;8</title>
<path fill="none" stroke="#c0c0c0" stroke-width="2" d="M824.6436,-1093.8169C845.5008,-1044.8445 862.8662,-977.9139 834.5,-926 829.0718,-916.0657 822.5888,-906.7405 815.3154,-898.0018"/>
<polygon fill="#c0c0c0" stroke="#c0c0c0" stroke-width="2" points="817.9461,-895.6932 808.7267,-890.4727 812.6783,-900.3031 817.9461,-895.6932"/>
</g>
<!-- 11&#45;&gt;9 -->
<g id="edge16" class="edge">
<title>11&#45;&gt;9</title>
<path fill="none" stroke="#c0c0c0" stroke-width="2" d="M768.553,-1093.602C765.8831,-1085.1389 763.1345,-1076.4264 760.4223,-1067.829"/>
<polygon fill="#c0c0c0" stroke="#c0c0c0" stroke-width="2" points="763.7281,-1066.6744 757.3816,-1058.1908 757.0524,-1068.7805 763.7281,-1066.6744"/>
</g>
<!-- 12&#45;&gt;10 -->
<g id="edge18" class="edge">
<title>12&#45;&gt;10</title>
<path fill="none" stroke="#c0c0c0" stroke-width="2" d="M469.9808,-1102.6538C473.9856,-1091.4403 478.243,-1079.5197 482.4238,-1067.8133"/>
<polygon fill="#c0c0c0" stroke="#c0c0c0" stroke-width="2" points="485.8432,-1068.6451 485.9105,-1058.0505 479.251,-1066.2907 485.8432,-1068.6451"/>
</g>
</g>
</svg>
